<svg width="214" height="123" viewBox="0 0 214 123" fill="none" xmlns="http://www.w3.org/2000/svg">
<path d="M82.1741 31.8173C82.6213 31.7289 83.0907 31.7436 83.533 31.6453C85.7887 31.1465 87.7528 30.2006 88.5533 27.8517C88.7682 27.2203 88.8399 26.3333 88.5533 25.7756C87.5626 23.8395 85.759 22.9378 83.6886 22.4881C82.0778 22.1392 80.6177 22.2228 79.5207 23.6847C78.4657 25.0925 78.1371 26.6871 78.1544 28.321C78.0507 30.8271 79.7752 32.2891 82.1717 31.8149L82.1741 31.8173Z" fill="white"/>
<path d="M133.069 53.7875C131.856 53.5689 131.653 53.3354 132.221 52.2838C133.187 50.4779 134.22 48.6917 135.384 47.0112C136.972 44.7114 138.751 42.5419 140.37 40.2619C140.814 39.6304 141.153 38.8196 141.244 38.0555C141.758 33.7877 137.056 30.6059 133.953 31.2914C131.512 31.832 129.136 32.6821 126.749 33.456C125.936 33.7214 125.235 33.859 124.523 33.2373C123.997 32.7754 123.419 32.3725 122.845 31.9622C121.136 30.7361 118.947 30.9057 117.398 32.2472C115.844 33.5912 115.666 36.6649 116.59 38.8123C116.797 39.2938 117.099 39.9474 116.928 40.338C116.466 41.4191 115.866 42.4682 115.157 43.4093C113.494 45.6132 111.829 47.8244 109.996 49.8858C107.802 52.3575 105.507 54.7384 101.976 55.3698C100.528 55.6327 99.7056 55.2519 99.8464 53.79C100.007 52.134 100.234 50.419 100.832 48.8834C102.579 44.3994 104.489 39.9793 106.406 35.5617C107.365 33.3553 108.496 31.2251 109.507 29.0409C109.84 28.3136 110.334 27.9598 111.115 27.9008C112.753 27.7755 114.389 27.6477 116.024 27.488C118.902 27.2129 121.778 26.9327 124.654 26.6232C128.323 26.2301 131.987 25.8001 135.656 25.3947C139.596 24.9573 143.547 24.5937 147.473 24.0655C149.602 23.7829 151.804 23.8173 153.817 22.8664C155.107 22.2571 156.463 21.778 157.728 21.122C158.111 20.923 158.526 20.2915 158.479 19.9058C158.432 19.5077 157.899 19.0876 157.481 18.8395C157.153 18.6454 156.663 18.6134 156.266 18.6577C154.588 18.8518 152.918 19.1171 151.243 19.3309C149.958 19.4955 148.668 19.7215 147.379 19.7461C140.965 19.8616 134.549 19.9156 128.133 19.9967C123.162 20.0581 118.193 20.1319 113.22 20.1884C112.867 20.1933 112.513 20.1146 111.99 20.0557C112.35 19.5815 112.704 19.3161 112.78 18.9893C113.138 17.3849 113.474 15.7756 113.717 14.154C113.843 13.326 113.385 12.8616 112.506 12.611C109.904 11.8715 107.283 11.8715 104.659 12.2744C104.081 12.3604 103.352 12.8862 103.098 13.4095C102.411 14.8174 101.976 16.3481 101.373 17.8002C100.489 19.9328 100.35 19.9623 98.0898 19.7019C93.5167 19.1736 88.9386 18.665 84.3581 18.1687C83.8047 18.1098 83.2167 18.0852 82.6781 18.1933C81.502 18.4267 81.1907 19.3554 81.9122 20.3038C82.8115 21.4807 84.2469 21.6674 85.502 21.8959C89.3982 22.6109 93.3314 23.1244 97.2547 23.6773C98.5938 23.8664 98.8063 24.0139 98.4406 25.3628C97.9786 27.063 97.398 28.7386 96.8372 30.4118C96.0071 32.8958 95.1671 35.3774 94.2949 37.8442C93.1708 41.0186 91.7527 44.0751 89.5662 46.6574C87.5995 48.9768 85.4303 51.1242 83.3007 53.2986C82.6039 54.0111 81.8109 54.6794 80.9462 55.1757C79.8467 55.8071 79.4267 55.5099 79.6516 54.2666C79.8813 53.0037 80.2988 51.7753 80.6744 50.5394C81.3118 48.4411 81.9863 46.3552 82.6459 44.2618C83.3155 42.1365 84.0517 40.0285 84.6422 37.8811C84.9659 36.7017 84.4495 35.7607 83.481 34.945C81.7565 33.4978 79.7207 32.7656 77.6083 32.2472C77.171 32.1416 76.2248 32.6674 76.0741 33.0973C75.2168 35.5543 74.5472 38.0776 73.7739 40.5641C73.0525 42.8859 72.2841 45.193 71.5182 47.5001C70.6016 50.274 70.0013 52.9792 71.5306 55.8121C73.68 59.7973 78.3396 61.129 82.3149 59.4779C84.6793 58.4975 86.421 56.7113 88.027 54.7826C88.3901 54.3453 88.8052 53.9472 89.3117 53.4141C90.2975 55.5197 91.6415 56.9914 93.4771 58.0725C95.6809 59.3648 98.0206 60.3255 100.563 60.1781C103.214 60.0258 105.739 59.3526 108.086 57.844C111.379 55.731 114.129 53.0701 116.619 50.1512C118.265 48.2225 119.55 45.9817 120.943 43.8491C121.338 43.2446 121.761 42.9179 122.487 43.0505C124.595 43.4338 126.495 42.822 128.323 41.854C128.609 41.7016 128.928 41.6132 129.232 41.4953C129.242 41.9523 129.111 42.2569 128.926 42.5223C128.323 43.3847 127.673 44.2127 127.092 45.0849C125.346 47.7016 123.933 50.4779 123.55 53.6352C123.28 55.8661 124.207 58.9398 127.167 59.1019C129.069 59.2076 130.986 59.1535 132.891 59.043C133.61 58.9987 133.879 59.1315 134.07 59.8268C134.512 61.4558 134.04 62.9668 133.565 64.4557C132.239 68.608 130.524 72.5834 126.561 74.9421C124.446 76.2 122.208 77.3745 119.873 78.1042C118.01 78.6841 115.918 78.6718 113.926 78.6718C110.49 78.6693 107.051 78.4089 103.614 78.3696C98.7124 78.3131 93.9762 77.4531 89.4204 75.6865C88.7928 75.4433 88.1332 74.7873 87.9084 74.1681C87.6885 73.576 89.5242 72.264 90.2382 72.318C92.8644 72.517 95.4858 72.7849 98.1145 72.8684C101.643 72.979 105.163 72.78 108.531 71.6129C110.077 71.0773 111.742 70.4679 111.851 68.4139C111.923 67.1338 111.574 65.9643 110.848 64.8513C109.64 63.0012 108.316 61.3034 106.159 60.5245C105.699 60.3599 105.087 60.6179 104.543 60.6843C104.728 61.1241 104.81 61.6597 105.114 61.9864C106.349 63.323 105.966 63.9963 104.474 64.4238C100.845 65.468 97.1312 65.6522 93.3981 65.3599C90.2184 65.1117 87.0436 64.7899 83.8788 64.4041C81.754 64.1437 79.6293 63.8071 77.5392 63.3451C74.6881 62.7137 71.8419 62.0601 69.2305 60.6425C67.6493 59.785 66.0236 59.0209 65.0156 57.473C64.2101 56.2347 63.679 54.8661 64.0916 53.3428C64.5289 51.7138 64.9118 50.0627 65.485 48.4804C66.2879 46.2593 67.1255 44.0358 68.1582 41.9154C69.8308 38.4953 71.7035 35.171 73.433 31.7754C74.0333 30.601 74.0136 29.3479 73.0747 28.3357C72.2125 27.402 71.3453 26.3333 70.2459 25.7804C68.4275 24.8714 66.4658 24.068 64.477 23.7117C62.792 23.4095 61.4233 24.8075 60.1509 25.778C58.2905 27.1981 56.4993 28.7559 54.9008 30.461C50.9627 34.6649 47.1134 38.9498 43.3087 43.2741C41.1568 45.7188 39.1506 48.2888 37.1049 50.8195C36.302 51.8096 35.5608 52.849 34.785 53.8662C33.9648 54.935 33.142 56.0012 32.3218 57.0676C32.2403 57.0209 32.1563 56.9742 32.0747 56.9276C32.2551 56.5344 32.4033 56.1266 32.6183 55.7531C34.3848 52.6942 36.1315 49.618 37.9573 46.591C39.2939 44.3724 40.717 42.2053 42.1302 40.0383C45.2629 35.2349 48.5612 30.5347 51.5087 25.6232C53.4209 22.4414 55.1528 19.0754 56.3758 15.5864C58.0039 10.9526 57.1343 8.77079 53.1739 6.00424C50.2585 3.9674 47.0072 2.46375 43.5533 1.41462C40.7022 0.547307 37.8511 -0.0472818 34.8567 0.00185775C31.4596 0.0583682 28.186 0.620985 24.9322 1.62835C21.0953 2.81998 17.5326 4.5202 14.264 6.7757C12.1343 8.24252 10.1134 9.90343 8.25299 11.6921C6.57049 13.3088 4.93741 15.0729 3.70704 17.0385C2.26419 19.3456 0.850993 21.7289 0.579225 24.6134C0.398869 26.5298 0.445811 28.3701 1.59465 29.8836C4.58905 33.8344 8.74711 35.4781 13.6439 35.4339C13.9132 35.4315 14.2566 35.37 14.4345 35.1981C14.7087 34.9327 15.0497 34.5395 15.0274 34.2226C15.0027 33.8983 14.6321 33.488 14.3085 33.3283C13.8465 33.1022 13.2955 33.0212 12.7742 32.9646C11.2894 32.8099 10.2616 31.2374 10.5828 29.8983C10.946 28.3775 11.2647 26.7657 12.038 25.4438C13.3054 23.2718 14.9187 21.2989 16.4011 19.2522C18.7358 16.0262 21.876 13.6405 25.0705 11.3702C26.9976 9.99924 29.1372 8.89115 31.2594 7.815C35.247 5.79045 39.4916 4.79294 43.9881 5.13692C45.8707 5.27942 47.4445 6.37032 46.8417 8.51772C46.6168 9.32607 46.4686 10.1786 46.0931 10.9108C44.4847 14.0385 42.9183 17.1933 41.1246 20.2129C37.7596 25.8713 34.2439 31.4364 30.8073 37.053C27.8401 41.9006 24.7913 46.6991 21.9773 51.6328C20.023 55.0676 18.2936 58.645 16.6828 62.2567C15.8131 64.2051 15.7686 66.2518 17.0706 68.2665C18.553 70.5564 20.8309 71.6817 23.0767 72.8733C23.9439 73.3328 25.0063 73.4851 26.0044 73.6178C26.7332 73.7161 27.467 73.4704 27.4695 72.5171C27.4769 70.4827 28.5121 68.834 29.5843 67.2689C31.2792 64.7898 33.0852 62.382 34.9604 60.0381C37.9548 56.2985 41.0233 52.6156 44.1116 48.9497C45.5446 47.2495 47.0986 45.6524 48.5859 43.9964C51.1479 41.139 53.7001 38.2717 56.2696 35.4216C56.3956 35.284 56.6352 35.2496 56.9317 35.1194C56.566 36.1194 56.2547 36.9547 55.9508 37.7926C55.4617 39.139 54.9206 40.4707 54.508 41.8392C54.0608 43.3355 53.6507 44.8515 53.3765 46.3895C52.9713 48.6524 52.3882 50.9448 52.445 53.2126C52.5389 56.957 54.6118 59.6523 57.9743 61.3403C60.5413 62.6277 63.0885 63.9545 65.6876 65.1707C68.2595 66.3746 70.8067 67.7063 73.4997 68.5539C77.6973 69.8758 82.0085 70.8414 86.174 71.9299C85.7416 72.3156 85.0869 72.7382 84.6422 73.318C81.6775 77.1853 83.1425 80.6054 86.9498 82.3155C89.2499 83.3498 91.6464 84.1312 94.1615 84.5219C95.9255 84.7946 97.6649 85.2933 99.4338 85.4456C101.887 85.6569 104.368 85.7651 106.828 85.6889C110.623 85.571 114.421 85.3179 118.208 85.0059C120.002 84.8585 121.82 84.5882 123.542 84.0894C125.823 83.431 128.029 82.512 130.255 81.6693C131.157 81.3302 132.093 80.9936 132.891 80.4703C133.788 79.8855 134.534 79.0723 135.364 78.3794C137.43 76.6571 139.418 74.9912 140.226 72.1657C140.987 69.5171 141.842 66.9274 142.047 64.1535C142.237 61.5614 141.281 59.3869 139.764 57.3845C138.087 55.1683 135.695 54.2543 133.064 53.7826L133.069 53.7875Z" fill="white"/>
<path d="M171.537 37.8759C171.151 37.9226 170.62 38.3403 170.491 38.7015C169.624 41.1683 168.888 43.6818 168.033 46.1535C167.26 48.3893 166.447 50.6178 165.53 52.7996C165.17 53.6546 164.475 54.3696 163.932 55.1485C163.801 55.1067 163.673 55.065 163.542 55.0232C163.638 53.9397 163.653 52.8414 163.843 51.7751C164.268 49.4139 164.762 47.0626 165.266 44.7162C165.501 43.6228 165.187 42.726 164.295 42.1364C162.746 41.1093 161.155 40.1339 159.218 39.9718C157.906 39.8636 157.864 39.9865 157.703 41.2592C157.447 43.3034 157.125 45.3476 156.653 47.3501C156.29 48.8955 155.71 50.3967 155.127 51.8783C154.516 53.4237 153.679 54.8463 152.194 55.748C151.638 56.0871 150.539 55.8266 150.46 55.3131C150.257 53.9814 149.854 52.5883 150.057 51.3033C150.497 48.5245 151.072 45.7309 151.972 43.07C152.557 41.3403 153.669 39.7285 154.798 38.2568C156.209 36.4165 159.067 35.7433 160.369 38.9005C160.582 39.4164 161.402 39.8071 162.022 40.0086C163.131 40.3698 163.833 39.839 163.638 38.7088C163.465 37.7088 162.944 36.7629 162.551 35.8047C161.847 34.0873 160.495 32.8318 158.917 32.1266C155.117 30.4264 151.436 31.3428 148.177 33.5664C145.625 35.3084 143.873 37.8612 142.714 40.7358C141.034 44.9102 140.283 49.1043 142.408 53.4114C143.764 56.1608 145.528 58.4998 148.446 59.657C150.788 60.5858 153.434 60.6669 155.379 58.1411C155.72 57.6964 156.145 57.3156 156.485 56.8733C156.891 56.35 157.16 56.5416 157.595 56.8905C158.857 57.9027 160.11 58.9617 161.503 59.7652C162.667 60.4359 164.075 60.4801 165.227 59.6546C167.25 58.2025 168.436 56.0477 169.528 53.9053C170.378 52.2394 170.958 50.4335 171.583 48.662C172.498 46.0675 173.417 43.4705 174.188 40.8317C174.729 38.9791 173.483 37.6425 171.544 37.8784L171.537 37.8759Z" fill="white"/>
<path d="M180.097 29.5102C180.07 29.267 180.06 29.0213 180.063 28.778C180.119 24.955 180.142 21.1295 180.248 17.3064C180.347 13.7782 178.318 11.4564 175.84 9.37531C175.564 9.14189 175.144 9.04363 174.773 8.95763C173.824 8.7365 173.412 9.16157 173.471 10.137C173.585 11.9846 173.765 13.8396 173.703 15.6848C173.609 18.4759 173.335 21.2622 173.137 24.0508C173.157 24.0508 173.177 24.0533 173.199 24.0557C173.254 24.6823 173.318 25.3112 173.362 25.9378C173.525 28.2793 175.951 30.8886 178.296 31.235C179.887 31.4709 180.278 31.0974 180.1 29.5078L180.097 29.5102Z" fill="white"/>
<path d="M212.776 27.9081C212.45 27.8541 212.092 28.0236 211.743 28.0457C210.943 28.0973 210.14 28.1243 209.337 28.1464C208.865 28.1587 208.346 28.0187 207.929 28.1661C206.844 28.5469 205.767 28.9769 204.754 29.5174C202.162 30.8958 199.598 32.3233 197.046 33.773C196.08 34.3233 195.195 35.0161 194.232 35.5739C194.034 35.6894 193.404 35.5002 193.401 35.4461C193.389 34.4265 193.187 33.3086 193.537 32.4118C194.195 30.7287 195.499 29.4339 196.888 28.2619C197.352 27.8688 197.668 27.8958 198.138 28.3209C199.047 29.1415 200.799 28.7754 201.142 27.6133C201.513 26.3651 201.705 25.0285 201.73 23.7263C201.752 22.5273 201.063 21.8296 199.835 21.719C196.675 21.4365 193.604 21.778 190.746 23.3234C188.663 24.4512 186.963 25.9721 186.286 28.2546C185.898 29.5568 185.864 31.0014 185.888 32.3798C185.935 35.1169 187.225 37.2103 189.646 38.7582C188.228 39.8392 186.867 40.9473 185.436 41.9571C181.585 44.6745 179.055 48.2151 178.415 52.9398C178.301 53.7727 178.168 54.7531 178.491 55.4656C179.146 56.9079 180.028 58.269 180.972 59.5491C181.444 60.1903 182.185 60.78 182.931 61.0503C185.612 62.0184 188.391 62.3353 191.252 61.9815C194.827 61.5392 197.481 59.7333 199.321 56.7186C200.253 55.1928 200.695 53.5074 201.093 51.7408C201.673 49.1634 200.929 47.0234 199.672 44.9767C198.489 43.048 197.08 41.252 195.662 39.2446C196.307 38.7017 197.068 38.0063 197.888 37.3872C198.807 36.6967 199.773 36.0702 200.727 35.4265C203.726 33.4044 206.837 31.5911 210.246 30.316C211.195 29.9622 212.107 29.4978 213.013 29.0384C213.226 28.9302 213.339 28.6305 213.5 28.4167C213.26 28.2398 213.04 27.9573 212.779 27.9155L212.776 27.9081ZM189.906 55.3599C189.323 55.9078 188.809 56.6032 188.117 56.9398C186.657 57.6474 184.804 57.5589 184.527 55.9938C184.324 54.8513 184.29 53.5761 184.586 52.4681C185.468 49.1438 187.583 46.5222 189.891 44.0529C190.345 43.5664 190.82 43.0996 191.267 42.6082C191.823 41.9964 192.389 42.0505 192.66 42.7728C193.159 44.0947 193.518 45.4682 193.775 46.3011C193.53 50.2077 192.351 53.0676 189.906 55.3648V55.3599Z" fill="white"/>
<path d="M182.51 111.093C182.51 111.646 182.402 112.169 182.187 112.66C181.98 113.151 181.693 113.579 181.325 113.945C180.957 114.312 180.526 114.602 180.032 114.816C179.538 115.021 179.013 115.124 178.456 115.124H177.352C176.795 115.124 176.27 115.021 175.776 114.816C175.282 114.602 174.851 114.312 174.483 113.945C174.115 113.579 173.823 113.151 173.608 112.66C173.401 112.169 173.298 111.646 173.298 111.093V104.905C173.298 104.352 173.401 103.829 173.608 103.338C173.823 102.847 174.115 102.419 174.483 102.053C174.851 101.687 175.282 101.401 175.776 101.195C176.27 100.981 176.795 100.874 177.352 100.874H178.456C179.013 100.874 179.538 100.981 180.032 101.195C180.526 101.401 180.957 101.687 181.325 102.053C181.693 102.419 181.98 102.847 182.187 103.338C182.402 103.829 182.51 104.352 182.51 104.905V108.133H174.955V111.187C174.955 111.517 175.018 111.829 175.143 112.124C175.269 112.41 175.44 112.66 175.655 112.874C175.87 113.088 176.122 113.258 176.409 113.383C176.705 113.508 177.02 113.57 177.352 113.57H178.456C178.788 113.57 179.098 113.508 179.385 113.383C179.682 113.258 179.938 113.088 180.153 112.874C180.369 112.66 180.539 112.41 180.665 112.124C180.79 111.829 180.853 111.517 180.853 111.187V110.276L182.51 110.544V111.093ZM180.853 104.812C180.853 104.481 180.79 104.173 180.665 103.887C180.539 103.593 180.369 103.338 180.153 103.124C179.938 102.91 179.682 102.74 179.385 102.615C179.098 102.49 178.788 102.428 178.456 102.428H177.352C177.02 102.428 176.705 102.49 176.409 102.615C176.122 102.74 175.87 102.91 175.655 103.124C175.44 103.338 175.269 103.593 175.143 103.887C175.018 104.173 174.955 104.481 174.955 104.812V106.847H180.853V104.812Z" fill="white"/>
<path d="M169.433 102.709C169.101 102.709 168.787 102.771 168.49 102.896C168.203 103.021 167.952 103.191 167.736 103.405C167.521 103.62 167.35 103.874 167.224 104.169C167.099 104.454 167.036 104.762 167.036 105.093V114.856H165.379V101.142H165.932L166.834 102.535C167.211 102.026 167.682 101.624 168.248 101.329C168.823 101.026 169.447 100.874 170.12 100.874H171.09V102.709H169.433Z" fill="white"/>
<path d="M162.067 111.093C162.067 111.646 161.959 112.169 161.743 112.66C161.537 113.151 161.25 113.579 160.881 113.945C160.513 114.312 160.082 114.602 159.589 114.816C159.095 115.021 158.57 115.124 158.013 115.124H156.909C156.352 115.124 155.827 115.021 155.333 114.816C154.839 114.602 154.408 114.312 154.04 113.945C153.672 113.579 153.38 113.151 153.165 112.66C152.958 112.169 152.855 111.646 152.855 111.093V104.905C152.855 104.352 152.958 103.829 153.165 103.338C153.38 102.847 153.672 102.419 154.04 102.053C154.408 101.687 154.839 101.401 155.333 101.195C155.827 100.981 156.352 100.874 156.909 100.874H158.013C158.57 100.874 159.095 100.981 159.589 101.195C160.082 101.401 160.513 101.687 160.881 102.053C161.25 102.419 161.537 102.847 161.743 103.338C161.959 103.829 162.067 104.352 162.067 104.905V111.093ZM160.41 104.812C160.41 104.481 160.347 104.173 160.222 103.887C160.096 103.593 159.925 103.338 159.71 103.124C159.494 102.91 159.238 102.74 158.942 102.615C158.655 102.49 158.345 102.428 158.013 102.428H156.909C156.576 102.428 156.262 102.49 155.966 102.615C155.679 102.74 155.427 102.91 155.212 103.124C154.996 103.338 154.826 103.593 154.7 103.887C154.574 104.173 154.511 104.481 154.511 104.812V111.187C154.511 111.517 154.574 111.829 154.7 112.124C154.826 112.41 154.996 112.66 155.212 112.874C155.427 113.088 155.679 113.258 155.966 113.383C156.262 113.508 156.576 113.57 156.909 113.57H158.013C158.345 113.57 158.655 113.508 158.942 113.383C159.238 113.258 159.494 113.088 159.71 112.874C159.925 112.66 160.096 112.41 160.222 112.124C160.347 111.829 160.41 111.517 160.41 111.187V104.812Z" fill="white"/>
<path d="M147.886 114.856V104.812C147.886 104.481 147.823 104.173 147.697 103.887C147.571 103.593 147.401 103.338 147.185 103.124C146.97 102.91 146.714 102.74 146.418 102.615C146.13 102.49 145.821 102.428 145.488 102.428H144.667C144.335 102.428 144.02 102.49 143.724 102.615C143.437 102.74 143.181 102.91 142.957 103.124C142.741 103.338 142.57 103.593 142.445 103.887C142.319 104.173 142.256 104.481 142.256 104.812V114.856H140.613V104.812C140.613 104.481 140.55 104.173 140.425 103.887C140.299 103.593 140.124 103.338 139.899 103.124C139.684 102.91 139.428 102.74 139.132 102.615C138.845 102.49 138.535 102.428 138.203 102.428H137.381C137.049 102.428 136.735 102.49 136.438 102.615C136.151 102.74 135.9 102.91 135.684 103.124C135.469 103.338 135.298 103.593 135.172 103.887C135.047 104.173 134.984 104.481 134.984 104.812V114.856H133.327V101.142H133.88L134.782 102.535C135.159 102.026 135.63 101.624 136.196 101.329C136.771 101.026 137.395 100.874 138.068 100.874H138.203C138.984 100.874 139.688 101.066 140.317 101.45C140.945 101.834 141.43 102.343 141.771 102.977C141.942 102.664 142.153 102.378 142.404 102.12C142.656 101.861 142.934 101.642 143.239 101.463C143.545 101.276 143.877 101.133 144.236 101.035C144.595 100.928 144.968 100.874 145.354 100.874H145.488C146.045 100.874 146.57 100.981 147.064 101.195C147.558 101.401 147.989 101.687 148.357 102.053C148.725 102.419 149.012 102.847 149.219 103.338C149.434 103.829 149.542 104.352 149.542 104.905V114.856H147.886Z" fill="white"/>
<path d="M122.89 115.124C122.109 115.124 121.427 114.959 120.843 114.628C120.269 114.298 119.811 113.852 119.47 113.289C119.021 113.852 118.469 114.298 117.813 114.628C117.158 114.959 116.449 115.124 115.685 115.124H114.864C114.208 115.124 113.589 115.003 113.005 114.762C112.431 114.512 111.928 114.173 111.497 113.744C111.066 113.316 110.725 112.816 110.474 112.244C110.231 111.673 110.11 111.061 110.11 110.41V109.365C110.11 108.91 110.168 108.477 110.285 108.066C110.411 107.646 110.586 107.258 110.81 106.901C111.035 106.544 111.3 106.222 111.605 105.936C111.91 105.642 112.251 105.396 112.628 105.2C112.251 105.003 111.91 104.762 111.605 104.477C111.3 104.182 111.035 103.856 110.81 103.499C110.586 103.142 110.411 102.758 110.285 102.347C110.168 101.927 110.11 101.49 110.11 101.035V100.097C110.11 99.4453 110.231 98.8337 110.474 98.2623C110.725 97.6908 111.066 97.1908 111.497 96.7623C111.928 96.3337 112.431 95.9989 113.005 95.7578C113.589 95.5078 114.208 95.3828 114.864 95.3828H115.685C116.341 95.3828 116.956 95.5078 117.53 95.7578C118.105 95.9989 118.608 96.3337 119.039 96.7623C119.47 97.1908 119.806 97.6908 120.049 98.2623C120.3 98.8337 120.426 99.4453 120.426 100.097V100.231L118.689 100.512V100.097C118.689 99.6685 118.608 99.2712 118.446 98.9051C118.285 98.5301 118.065 98.2042 117.786 97.9275C117.508 97.6507 117.18 97.4319 116.803 97.2712C116.435 97.1105 116.036 97.0301 115.605 97.0301H114.945C114.514 97.0301 114.11 97.1105 113.733 97.2712C113.365 97.4319 113.037 97.6507 112.75 97.9275C112.471 98.2042 112.251 98.5301 112.09 98.9051C111.928 99.2712 111.847 99.6685 111.847 100.097V101.302C111.847 101.731 111.928 102.133 112.09 102.508C112.251 102.874 112.471 103.2 112.75 103.485C113.037 103.762 113.365 103.981 113.733 104.142C114.11 104.302 114.514 104.383 114.945 104.383H118.689V102.628L120.426 102.347V104.356H123.106V105.99H120.426V110.61C120.444 111.012 120.507 111.387 120.614 111.735C120.722 112.084 120.879 112.392 121.086 112.66C121.301 112.919 121.566 113.124 121.88 113.276C122.195 113.419 122.558 113.49 122.971 113.49H123.375L123.133 115.124H122.89ZM115.605 113.49C116.018 113.49 116.408 113.414 116.776 113.262C117.144 113.11 117.463 112.901 117.732 112.633C118.011 112.365 118.235 112.052 118.406 111.695C118.576 111.338 118.671 110.954 118.689 110.544V106.03H114.945C114.514 106.03 114.11 106.11 113.733 106.271C113.365 106.432 113.037 106.651 112.75 106.927C112.471 107.204 112.251 107.53 112.09 107.905C111.928 108.271 111.847 108.669 111.847 109.097V110.41C111.847 110.838 111.928 111.24 112.09 111.615C112.251 111.981 112.471 112.307 112.75 112.593C113.037 112.869 113.365 113.088 113.733 113.249C114.11 113.41 114.514 113.49 114.945 113.49H115.605Z" fill="white"/>
<path d="M94.8381 120.347H93.2354L95.6865 113.677L91.2154 101.142H92.8718L96.4676 111.534L96.5215 112.244L96.5753 111.534L100.158 101.142H101.814L94.8381 120.347Z" fill="white"/>
<path d="M88.7374 102.709C88.4052 102.709 88.091 102.771 87.7947 102.896C87.5074 103.021 87.256 103.191 87.0405 103.405C86.825 103.62 86.6545 103.874 86.5288 104.169C86.4031 104.454 86.3402 104.762 86.3402 105.093V114.856H84.6837V101.142H85.2359L86.1382 102.535C86.5153 102.026 86.9866 101.624 87.5523 101.329C88.1269 101.026 88.7509 100.874 89.4242 100.874H90.3939V102.709H88.7374Z" fill="white"/>
<path d="M79.1487 114.856V95.6509H80.8052V114.856H79.1487Z" fill="white"/>
<path d="M75.2836 111.093C75.2836 111.646 75.1759 112.169 74.9604 112.66C74.7539 113.151 74.4666 113.579 74.0985 113.945C73.7304 114.312 73.2994 114.602 72.8056 114.816C72.3118 115.021 71.7866 115.124 71.23 115.124H70.1257C69.569 115.124 69.0438 115.021 68.55 114.816C68.0562 114.602 67.6252 114.312 67.2571 113.945C66.889 113.579 66.5972 113.151 66.3818 112.66C66.1753 112.169 66.072 111.646 66.072 111.093V104.905C66.072 104.352 66.1753 103.829 66.3818 103.338C66.5972 102.847 66.889 102.419 67.2571 102.053C67.6252 101.687 68.0562 101.401 68.55 101.195C69.0438 100.981 69.569 100.874 70.1257 100.874H71.23C71.7866 100.874 72.3118 100.981 72.8056 101.195C73.2994 101.401 73.7304 101.687 74.0985 102.053C74.4666 102.419 74.7539 102.847 74.9604 103.338C75.1759 103.829 75.2836 104.352 75.2836 104.905V108.133H67.7285V111.187C67.7285 111.517 67.7913 111.829 67.917 112.124C68.0427 112.41 68.2133 112.66 68.4288 112.874C68.6443 113.088 68.8957 113.258 69.183 113.383C69.4792 113.508 69.7935 113.57 70.1257 113.57H71.23C71.5622 113.57 71.8719 113.508 72.1592 113.383C72.4555 113.258 72.7114 113.088 72.9269 112.874C73.1423 112.66 73.3129 112.41 73.4386 112.124C73.5643 111.829 73.6272 111.517 73.6272 111.187V110.276L75.2836 110.544V111.093ZM73.6272 104.812C73.6272 104.481 73.5643 104.173 73.4386 103.887C73.3129 103.593 73.1423 103.338 72.9269 103.124C72.7114 102.91 72.4555 102.74 72.1592 102.615C71.8719 102.49 71.5622 102.428 71.23 102.428H70.1257C69.7935 102.428 69.4792 102.49 69.183 102.615C68.8957 102.74 68.6443 102.91 68.4288 103.124C68.2133 103.338 68.0427 103.593 67.917 103.887C67.7913 104.173 67.7285 104.481 67.7285 104.812V106.847H73.6272V104.812Z" fill="white"/>
<path d="M59.5269 114.856H58.6246L55.3925 104.517L55.3386 103.807L55.2847 104.517L52.0526 114.856H51.1368L46.531 101.142H48.2144L51.5004 111.508L51.5543 112.217L51.6082 111.508L54.8403 101.142H55.8369L59.0556 111.508L59.1094 112.217L59.1633 111.508L62.4493 101.142H64.1327L59.5269 114.856Z" fill="white"/>
<path d="M44.6052 111.093C44.6052 111.646 44.4975 112.169 44.282 112.66C44.0755 113.151 43.7882 113.579 43.4201 113.945C43.052 114.312 42.621 114.602 42.1272 114.816C41.6334 115.021 41.1082 115.124 40.5516 115.124H39.4473C38.8906 115.124 38.3654 115.021 37.8716 114.816C37.3778 114.602 36.9468 114.312 36.5787 113.945C36.2106 113.579 35.9188 113.151 35.7034 112.66C35.4969 112.169 35.3936 111.646 35.3936 111.093V104.905C35.3936 104.352 35.4969 103.829 35.7034 103.338C35.9188 102.847 36.2106 102.419 36.5787 102.053C36.9468 101.687 37.3778 101.401 37.8716 101.195C38.3654 100.981 38.8906 100.874 39.4473 100.874H40.5516C41.1082 100.874 41.6334 100.981 42.1272 101.195C42.621 101.401 43.052 101.687 43.4201 102.053C43.7882 102.419 44.0755 102.847 44.282 103.338C44.4975 103.829 44.6052 104.352 44.6052 104.905V108.133H37.0501V111.187C37.0501 111.517 37.1129 111.829 37.2386 112.124C37.3643 112.41 37.5349 112.66 37.7504 112.874C37.9659 113.088 38.2172 113.258 38.5045 113.383C38.8008 113.508 39.1151 113.57 39.4473 113.57H40.5516C40.8838 113.57 41.1935 113.508 41.4808 113.383C41.7771 113.258 42.033 113.088 42.2484 112.874C42.4639 112.66 42.6345 112.41 42.7602 112.124C42.8859 111.829 42.9487 111.517 42.9487 111.187V110.276L44.6052 110.544V111.093ZM42.9487 104.812C42.9487 104.481 42.8859 104.173 42.7602 103.887C42.6345 103.593 42.4639 103.338 42.2484 103.124C42.033 102.91 41.7771 102.74 41.4808 102.615C41.1935 102.49 40.8838 102.428 40.5516 102.428H39.4473C39.1151 102.428 38.8008 102.49 38.5045 102.615C38.2172 102.74 37.9659 102.91 37.7504 103.124C37.5349 103.338 37.3643 103.593 37.2386 103.887C37.1129 104.173 37.0501 104.481 37.0501 104.812V106.847H42.9487V104.812Z" fill="white"/>
<path d="M29.7239 97.8473V95.6509H31.6497V97.8473H29.7239ZM31.5151 116.316C31.5151 116.87 31.4073 117.387 31.1919 117.87C30.9854 118.361 30.6981 118.789 30.3299 119.155C29.9618 119.521 29.5309 119.812 29.0371 120.026C28.5433 120.24 28.0181 120.347 27.4614 120.347V118.78C27.7936 118.78 28.1034 118.718 28.3907 118.593C28.6869 118.468 28.9428 118.298 29.1583 118.084C29.3738 117.87 29.5444 117.615 29.6701 117.321C29.7957 117.035 29.8586 116.727 29.8586 116.396V101.142H31.5151V116.316Z" fill="white"/>
</svg>
