<svg width="495" height="200" viewBox="0 0 495 200" fill="none" xmlns="http://www.w3.org/2000/svg">
<path d="M189.52 74.2488C190.558 74.0424 191.647 74.0768 192.674 73.8475C197.908 72.6837 202.465 70.4764 204.323 64.9957C204.822 63.5223 204.988 61.4528 204.323 60.1514C202.024 55.6338 197.839 53.5299 193.035 52.4808C189.297 51.6667 185.909 51.8616 183.363 55.2727C180.915 58.5576 180.153 62.2784 180.193 66.0908C179.952 71.9384 183.954 75.3495 189.515 74.243L189.52 74.2488Z" fill="white"/>
<path d="M307.619 125.506C304.804 124.996 304.334 124.452 305.652 121.998C307.894 117.784 310.29 113.616 312.991 109.695C316.677 104.329 320.804 99.2668 324.56 93.9466C325.591 92.4732 326.377 90.5814 326.589 88.7984C327.781 78.8403 316.872 71.4161 309.671 73.0156C304.007 74.2768 298.492 76.2605 292.954 78.0664C291.068 78.6855 289.44 79.0066 287.788 77.5562C286.567 76.4784 285.226 75.5381 283.896 74.5807C279.929 71.7199 274.849 72.1156 271.255 75.2458C267.649 78.3817 267.236 85.5536 269.38 90.5642C269.862 91.6879 270.561 93.2128 270.165 94.1243C269.093 96.6468 267.7 99.0948 266.055 101.291C262.197 106.433 258.333 111.593 254.079 116.403C248.988 122.17 243.662 127.725 235.47 129.198C232.11 129.812 230.201 128.923 230.528 125.512C230.901 121.648 231.428 117.647 232.815 114.064C236.869 103.601 241.3 93.2874 245.749 82.9795C247.973 77.8313 250.599 72.8609 252.944 67.7643C253.718 66.0673 254.864 65.2418 256.676 65.1042C260.477 64.8119 264.272 64.5136 268.067 64.141C274.746 63.4989 281.419 62.8453 288.092 62.123C296.606 61.2057 305.108 60.2025 313.621 59.2565C322.765 58.2361 331.932 57.3876 341.042 56.1551C345.984 55.4958 351.092 55.576 355.764 53.3573C358.757 51.9355 361.904 50.8177 364.839 49.287C365.728 48.8226 366.691 47.3493 366.582 46.4492C366.473 45.5205 365.235 44.5401 364.266 43.9611C363.503 43.5082 362.368 43.4336 361.445 43.5368C357.553 43.9897 353.677 44.6089 349.79 45.1077C346.809 45.4918 343.817 46.0192 340.824 46.0765C325.941 46.3459 311.053 46.4721 296.164 46.6613C284.63 46.8046 273.101 46.9766 261.56 47.1084C260.74 47.1199 259.921 46.9364 258.705 46.7988C259.542 45.6924 260.362 45.0733 260.54 44.3108C261.371 40.5672 262.151 36.812 262.713 33.0283C263.005 31.0963 261.944 30.0128 259.904 29.428C253.867 27.7024 247.784 27.7024 241.696 28.6426C240.354 28.8433 238.663 30.0701 238.072 31.2912C236.479 34.5762 235.47 38.1479 234.071 41.536C232.018 46.5122 231.697 46.581 226.452 45.9733C215.84 44.7407 205.217 43.554 194.588 42.396C193.304 42.2584 191.939 42.2011 190.69 42.4534C187.961 42.998 187.238 45.165 188.912 47.3779C190.999 50.124 194.33 50.5597 197.242 51.0928C206.283 52.7611 215.41 53.9593 224.514 55.2492C227.621 55.6906 228.114 56.0347 227.266 59.1821C226.194 63.1493 224.846 67.0592 223.545 70.9633C221.619 76.7593 219.67 82.5496 217.646 88.3055C215.037 95.7124 211.747 102.844 206.673 108.869C202.11 114.281 197.076 119.292 192.134 124.366C190.518 126.028 188.677 127.587 186.671 128.746C184.12 130.219 183.145 129.525 183.667 126.624C184.2 123.678 185.169 120.811 186.04 117.928C187.519 113.032 189.084 108.164 190.615 103.28C192.169 98.3208 193.877 93.402 195.247 88.3914C195.998 85.6396 194.8 83.4439 192.553 81.5406C188.551 78.1638 183.827 76.4554 178.926 75.2458C177.911 74.9993 175.715 76.2261 175.365 77.2294C173.376 82.9623 171.823 88.85 170.028 94.6517C168.354 100.069 166.571 105.453 164.794 110.836C162.667 117.308 161.274 123.62 164.823 130.23C169.81 139.529 180.622 142.636 189.847 138.784C195.333 136.496 199.375 132.329 203.101 127.828C203.944 126.808 204.907 125.879 206.083 124.635C208.37 129.548 211.489 132.982 215.748 135.505C220.862 138.52 226.291 140.762 232.19 140.418C238.342 140.062 244.201 138.492 249.647 134.972C257.289 130.041 263.67 123.832 269.449 117.022C273.267 112.521 276.248 107.293 279.481 102.317C280.399 100.906 281.379 100.144 283.065 100.454C287.955 101.348 292.363 99.9203 296.606 97.6615C297.271 97.3061 298.01 97.0997 298.716 96.8245C298.738 97.8909 298.435 98.6017 298.005 99.2209C296.606 101.233 295.098 103.165 293.751 105.2C289.698 111.306 286.418 117.784 285.53 125.151C284.905 130.357 287.055 137.529 293.923 137.907C298.337 138.153 302.786 138.027 307.206 137.769C308.874 137.666 309.499 137.976 309.941 139.598C310.967 143.399 309.872 146.925 308.771 150.399C305.693 160.088 301.714 169.364 292.518 174.867C287.611 177.802 282.417 180.543 276.999 182.245C272.676 183.598 267.821 183.57 263.2 183.57C255.225 183.564 247.245 182.956 239.271 182.865C227.896 182.733 216.906 180.726 206.335 176.604C204.879 176.037 203.348 174.506 202.826 173.061C202.316 171.68 206.576 168.618 208.232 168.744C214.327 169.209 220.409 169.834 226.509 170.028C234.696 170.286 242.865 169.822 250.679 167.099C254.268 165.849 258.132 164.427 258.384 159.635C258.55 156.648 257.742 153.919 256.057 151.322C253.253 147.005 250.18 143.044 245.175 141.226C244.109 140.842 242.687 141.444 241.426 141.599C241.856 142.625 242.045 143.875 242.75 144.637C245.617 147.756 244.728 149.327 241.266 150.324C232.844 152.761 224.227 153.191 215.565 152.509C208.187 151.93 200.82 151.179 193.476 150.279C188.545 149.671 183.615 148.885 178.765 147.808C172.149 146.334 165.545 144.809 159.485 141.501C155.816 139.501 152.044 137.718 149.705 134.106C147.836 131.216 146.603 128.023 147.561 124.469C148.575 120.668 149.464 116.815 150.794 113.123C152.657 107.941 154.601 102.752 156.997 97.8048C160.878 89.8246 165.224 82.0679 169.237 74.145C170.63 71.4046 170.584 68.4808 168.406 66.1188C166.405 63.9403 164.393 61.4465 161.841 60.1566C157.622 58.0354 153.07 56.1608 148.455 55.3295C144.545 54.6244 141.369 57.8864 138.417 60.1509C134.1 63.4645 129.943 67.0993 126.234 71.0779C117.096 80.887 108.164 90.8852 99.3351 100.975C94.3417 106.679 89.6865 112.676 84.9396 118.581C83.0764 120.891 81.3566 123.317 79.5565 125.69C77.6531 128.184 75.7441 130.672 73.8407 133.16C73.6515 133.051 73.4566 132.942 73.2674 132.833C73.6859 131.916 74.0299 130.964 74.5287 130.093C78.6277 122.955 82.681 115.778 86.9176 108.715C90.0191 103.538 93.3213 98.4814 96.6005 93.4249C103.87 82.217 111.523 71.2499 118.363 59.7898C122.8 52.3656 126.819 44.5114 129.657 36.3707C133.435 25.5583 131.417 20.4675 122.227 14.0122C115.462 9.25955 107.917 5.75103 99.9027 3.30306C93.2869 1.27933 86.6711 -0.108046 79.7227 0.00661339C71.8399 0.138471 64.2437 1.45124 56.6934 3.80175C47.7901 6.58223 39.5233 10.5494 31.9386 15.8122C26.9968 19.2348 22.3072 23.1103 17.9903 27.2839C14.0861 31.0562 10.2967 35.1724 7.44171 39.7588C4.09367 45.142 0.814474 50.703 0.18385 57.4335C-0.234655 61.9052 -0.125808 66.1991 2.54001 69.7306C9.48834 78.9492 19.1369 82.7846 30.4996 82.6814C31.1245 82.6757 31.9213 82.5324 32.3341 82.1311C32.9705 81.5119 33.7617 80.5947 33.7101 79.8551C33.6528 79.0984 32.7927 78.1409 32.0417 77.7682C30.9697 77.2408 29.6912 77.0516 28.4816 76.9198C25.0361 76.5586 22.6513 72.8895 23.3965 69.7651C24.2393 66.2164 24.9788 62.4556 26.7732 59.3713C29.7142 54.3034 33.4579 49.6997 36.8977 44.9242C42.3153 37.3968 49.6018 31.8302 57.0145 26.533C61.4862 23.334 66.4509 20.7484 71.3755 18.2374C80.6285 13.5135 90.4777 11.1858 100.912 11.9884C105.28 12.3209 108.932 14.8664 107.533 19.877C107.012 21.7631 106.668 23.7524 105.796 25.4608C102.064 32.7589 98.4293 40.12 94.2672 47.1658C86.4589 60.3688 78.3009 73.354 70.3264 86.4595C63.4411 97.7706 56.3666 108.967 49.8368 120.479C45.3021 128.493 41.289 136.84 37.5511 145.268C35.5332 149.814 35.43 154.59 38.4513 159.291C41.891 164.634 47.1767 167.259 52.3879 170.04C54.4002 171.112 56.8654 171.467 59.1815 171.777C60.8728 172.006 62.5754 171.433 62.5811 169.209C62.5983 164.462 65.0005 160.615 67.4886 156.963C71.4214 151.179 75.6122 145.56 79.9635 140.091C86.9118 131.366 94.0322 122.772 101.198 114.218C104.523 110.251 108.129 106.525 111.581 102.661C117.526 95.9932 123.448 89.3029 129.41 82.6527C129.703 82.3317 130.259 82.2514 130.947 81.9476C130.098 84.2809 129.376 86.23 128.671 88.1849C127.535 91.3266 126.28 94.434 125.323 97.6272C124.285 101.119 123.333 104.656 122.697 108.245C121.757 113.525 120.404 118.873 120.536 124.165C120.753 132.902 125.563 139.191 133.366 143.13C139.322 146.134 145.233 149.229 151.264 152.067C157.232 154.876 163.143 157.984 169.392 159.962C179.132 163.046 189.136 165.299 198.802 167.839C197.798 168.739 196.279 169.725 195.247 171.078C188.368 180.101 191.767 188.082 200.602 192.072C205.939 194.485 211.5 196.308 217.336 197.22C221.43 197.856 225.466 199.02 229.57 199.376C235.263 199.869 241.019 200.121 246.729 199.943C255.535 199.668 264.346 199.077 273.135 198.349C277.297 198.005 281.517 197.375 285.513 196.211C290.804 194.675 295.924 192.53 301.089 190.564C303.181 189.773 305.354 188.987 307.206 187.766C309.287 186.402 311.018 184.504 312.945 182.888C317.737 178.869 322.352 174.982 324.227 168.389C325.993 162.209 327.976 156.166 328.452 149.694C328.894 143.645 326.675 138.572 323.155 133.9C319.262 128.728 313.713 126.596 307.607 125.495L307.619 125.506Z" fill="white"/>
<path d="M396.875 88.3855C395.981 88.4944 394.748 89.4691 394.45 90.3118C392.438 96.0677 390.729 101.932 388.746 107.7C386.951 112.917 385.065 118.117 382.938 123.207C382.101 125.202 380.49 126.871 379.229 128.688C378.925 128.591 378.627 128.493 378.323 128.396C378.547 125.868 378.581 123.305 379.022 120.817C380.009 115.307 381.155 109.821 382.325 104.346C382.869 101.795 382.141 99.7024 380.072 98.3265C376.477 95.9301 372.785 93.6541 368.29 93.2757C365.246 93.0235 365.149 93.3101 364.776 96.2798C364.18 101.05 363.435 105.819 362.34 110.492C361.497 114.098 360.15 117.601 358.797 121.058C357.381 124.664 355.437 127.983 351.992 130.087C350.702 130.878 348.151 130.27 347.967 129.072C347.497 125.965 346.563 122.714 347.033 119.716C348.053 113.232 349.389 106.714 351.476 100.505C352.834 96.469 355.414 92.7082 358.034 89.2741C361.308 84.9802 367.941 83.4093 370.962 90.7761C371.455 91.98 373.358 92.8916 374.797 93.3617C377.371 94.2044 379 92.9662 378.547 90.329C378.145 87.9957 376.936 85.7885 376.024 83.5527C374.39 79.5453 371.254 76.6158 367.591 74.9705C358.774 71.0033 350.232 73.1416 342.67 78.3299C336.748 82.3945 332.683 88.3512 329.994 95.0587C326.096 104.799 324.353 114.585 329.283 124.635C332.431 131.05 336.524 136.508 343.295 139.208C348.73 141.375 354.87 141.564 359.381 135.671C360.173 134.633 361.159 133.745 361.95 132.713C362.89 131.492 363.515 131.939 364.524 132.753C367.453 135.115 370.36 137.586 373.593 139.46C376.294 141.025 379.561 141.129 382.233 139.202C386.928 135.814 389.68 130.786 392.214 125.787C394.186 121.9 395.533 117.687 396.984 113.553C399.105 107.499 401.238 101.439 403.026 95.2823C404.282 90.9596 401.392 87.8409 396.892 88.3912L396.875 88.3855Z" fill="white"/>
<path d="M416.74 68.865C416.677 68.2974 416.654 67.7241 416.66 67.1566C416.792 58.2361 416.843 49.31 417.09 40.3895C417.319 32.157 412.612 26.7393 406.862 21.8835C406.22 21.3389 405.245 21.1096 404.385 20.909C402.184 20.393 401.227 21.3848 401.364 23.6608C401.628 27.972 402.047 32.3003 401.903 36.6057C401.685 43.1183 401.049 49.6195 400.59 56.1264C400.636 56.1264 400.682 56.1321 400.734 56.1379C400.86 57.5998 401.009 59.0674 401.112 60.5293C401.49 65.9928 407.12 72.0812 412.561 72.8895C416.253 73.4399 417.159 72.5685 416.746 68.8593L416.74 68.865Z" fill="white"/>
<path d="M492.569 65.1271C491.813 65.001 490.982 65.3966 490.173 65.4482C488.316 65.5685 486.452 65.6316 484.589 65.6832C483.494 65.7118 482.29 65.3851 481.322 65.7291C478.805 66.6177 476.305 67.6209 473.955 68.8822C467.941 72.0984 461.99 75.4292 456.068 78.8117C453.826 80.0959 451.774 81.7126 449.538 83.014C449.079 83.2834 447.618 82.842 447.612 82.7159C447.583 80.3367 447.113 77.7281 447.927 75.6356C449.452 71.7085 452.479 68.6873 455.701 65.9527C456.779 65.0355 457.513 65.0985 458.602 66.0903C460.712 68.0051 464.776 67.1508 465.573 64.4391C466.433 61.5268 466.88 58.4081 466.938 55.3696C466.989 52.5719 465.39 50.9438 462.54 50.6858C455.208 50.0265 448.082 50.8234 441.449 54.4294C436.616 57.0609 432.672 60.6096 431.101 65.9355C430.201 68.974 430.121 72.345 430.178 75.5611C430.287 81.9477 433.279 86.8321 438.898 90.4439C435.607 92.9664 432.448 95.5519 429.129 97.9082C420.191 104.249 414.321 112.51 412.836 123.534C412.572 125.478 412.262 127.765 413.013 129.428C414.533 132.793 416.579 135.969 418.769 138.956C419.864 140.452 421.584 141.828 423.315 142.459C429.536 144.718 435.985 145.457 442.624 144.632C450.92 143.6 457.077 139.386 461.348 132.352C463.509 128.791 464.535 124.859 465.458 120.737C466.806 114.723 465.08 109.729 462.162 104.954C459.416 100.453 456.148 96.2628 452.857 91.579C454.354 90.312 456.119 88.6895 458.023 87.2448C460.155 85.6339 462.397 84.172 464.61 82.6699C471.57 77.9517 478.787 73.7208 486.699 70.7454C488.9 69.9198 491.016 68.8363 493.12 67.7643C493.613 67.512 493.877 66.8126 494.249 66.3138C493.693 65.9011 493.183 65.2418 492.575 65.1443L492.569 65.1271ZM439.505 129.176C438.152 130.454 436.96 132.076 435.355 132.862C431.966 134.513 427.667 134.307 427.025 130.655C426.555 127.989 426.474 125.014 427.162 122.428C429.209 114.671 434.116 108.554 439.471 102.793C440.526 101.658 441.627 100.568 442.664 99.4216C443.954 97.9941 445.267 98.1202 445.898 99.8057C447.056 102.89 447.887 106.095 448.483 108.038C447.916 117.154 445.181 123.827 439.505 129.187V129.176Z" fill="white"/>
</svg>
