<svg width="438" height="177" viewBox="0 0 438 177" fill="none" xmlns="http://www.w3.org/2000/svg">
<path d="M167.716 65.7025C168.636 65.5185 169.595 65.552 170.509 65.3457C175.143 64.3141 179.174 62.3624 180.819 57.5113C181.26 56.2065 181.41 54.372 180.819 53.2233C178.784 49.2253 175.076 47.3629 170.827 46.4373C167.515 45.7124 164.521 45.8853 162.268 48.9131C160.104 51.8182 159.43 55.1136 159.463 58.4871C159.251 63.6617 162.786 66.6783 167.716 65.7025Z" fill="#292D32"/>
<path d="M272.239 111.069C269.746 110.618 269.334 110.138 270.499 107.963C272.484 104.233 274.603 100.547 276.995 97.0735C280.257 92.3227 283.909 87.8451 287.233 83.1334C288.147 81.8286 288.839 80.1557 289.028 78.5777C290.082 69.762 280.43 63.1934 274.057 64.6097C269.044 65.7249 264.165 67.4814 259.263 69.0817C257.596 69.6282 256.152 69.9126 254.691 68.6301C253.609 67.6766 252.422 66.8457 251.245 65.9981C247.732 63.4666 243.238 63.8179 240.059 66.5892C236.87 69.3661 236.502 75.7117 238.398 80.1446C238.822 81.1371 239.441 82.4865 239.095 83.295C238.147 85.5254 236.915 87.6945 235.459 89.635C232.047 94.185 228.623 98.7518 224.859 103.012C220.354 108.114 215.642 113.032 208.388 114.337C205.416 114.878 203.726 114.092 204.016 111.075C204.345 107.657 204.813 104.116 206.04 100.943C209.625 91.6814 213.551 82.5534 217.488 73.431C219.456 68.8754 221.781 64.4759 223.856 59.9649C224.541 58.4649 225.556 57.7345 227.157 57.6118C230.519 57.3553 233.881 57.0877 237.238 56.7587C243.149 56.1899 249.054 55.61 254.959 54.9744C262.492 54.1603 270.02 53.2736 277.553 52.4372C285.644 51.5339 293.757 50.7811 301.82 49.6938C306.191 49.1083 310.713 49.1808 314.851 47.2181C317.5 45.9579 320.288 44.971 322.88 43.616C323.667 43.2034 324.52 41.8986 324.425 41.1068C324.33 40.2871 323.232 39.4172 322.373 38.9042C321.698 38.5027 320.695 38.4358 319.875 38.5306C316.429 38.9321 313 39.4786 309.559 39.9191C306.922 40.2592 304.273 40.7275 301.625 40.7777C288.454 41.0175 275.278 41.129 262.102 41.2963C251.892 41.4246 241.688 41.5751 231.478 41.6922C230.753 41.7034 230.028 41.5417 228.952 41.419C229.694 40.4376 230.419 39.8912 230.575 39.2165C231.311 35.9043 232.002 32.581 232.498 29.2298C232.755 27.5179 231.818 26.5589 230.011 26.0459C224.67 24.518 219.283 24.518 213.897 25.3489C212.709 25.5273 211.215 26.6146 210.69 27.6908C209.28 30.5959 208.388 33.7575 207.15 36.7574C205.332 41.1625 205.048 41.2239 200.408 40.683C191.018 39.5901 181.617 38.5417 172.21 37.5158C171.073 37.3931 169.868 37.3429 168.759 37.5659C166.344 38.0455 165.703 39.9637 167.186 41.9264C169.032 44.3576 171.982 44.7423 174.558 45.2163C182.559 46.6939 190.639 47.7534 198.696 48.8965C201.445 49.2868 201.88 49.5935 201.133 52.3759C200.185 55.8888 198.992 59.3459 197.838 62.8031C196.131 67.933 194.408 73.0574 192.619 78.1539C190.31 84.7113 187.399 91.0234 182.905 96.3541C178.868 101.144 174.413 105.577 170.036 110.071C168.603 111.543 166.974 112.921 165.201 113.947C162.943 115.251 162.079 114.638 162.541 112.067C163.015 109.458 163.868 106.921 164.644 104.372C165.954 100.04 167.337 95.7296 168.692 91.4082C170.069 87.0198 171.58 82.6649 172.79 78.232C173.454 75.7953 172.394 73.8548 170.404 72.1708C166.863 69.1821 162.681 67.671 158.343 66.6004C157.445 66.3829 155.499 67.4703 155.192 68.3569C153.43 73.4311 152.058 78.639 150.469 83.7746C148.986 88.5699 147.408 93.3319 145.836 98.0994C143.951 103.826 142.719 109.413 145.863 115.262C150.28 123.493 159.848 126.242 168.011 122.835C172.868 120.811 176.442 117.119 179.743 113.138C180.491 112.235 181.344 111.415 182.381 110.311C184.405 114.66 187.165 117.699 190.935 119.93C195.462 122.601 200.263 124.58 205.488 124.279C210.93 123.967 216.116 122.573 220.939 119.461C227.703 115.095 233.351 109.603 238.465 103.575C241.844 99.5938 244.481 94.9657 247.342 90.5606C248.156 89.3116 249.02 88.6369 250.515 88.9101C254.842 89.7019 258.745 88.4361 262.497 86.4399C263.089 86.1277 263.741 85.9437 264.365 85.6983C264.388 86.6407 264.114 87.2707 263.735 87.8172C262.497 89.5959 261.165 91.3078 259.971 93.1089C256.386 98.5121 253.481 104.244 252.695 110.768C252.143 115.374 254.044 121.725 260.122 122.06C264.031 122.277 267.968 122.166 271.876 121.937C273.354 121.848 273.906 122.121 274.296 123.554C275.205 126.916 274.235 130.039 273.259 133.111C270.533 141.687 267.014 149.895 258.873 154.769C254.529 157.367 249.935 159.793 245.139 161.298C241.314 162.497 237.015 162.469 232.928 162.469C225.868 162.469 218.809 161.928 211.75 161.845C201.685 161.728 191.955 159.954 182.598 156.302C181.31 155.8 179.955 154.445 179.493 153.168C179.041 151.947 182.81 149.237 184.277 149.349C189.669 149.761 195.055 150.313 200.453 150.486C207.696 150.715 214.928 150.302 221.843 147.893C225.021 146.789 228.439 145.529 228.662 141.286C228.807 138.643 228.093 136.228 226.604 133.931C224.123 130.111 221.402 126.604 216.975 124.998C216.032 124.658 214.772 125.193 213.657 125.327C214.036 126.236 214.203 127.34 214.828 128.015C217.365 130.775 216.579 132.163 213.512 133.05C206.057 135.208 198.434 135.587 190.767 134.985C184.238 134.472 177.719 133.808 171.218 133.011C166.852 132.476 162.491 131.779 158.198 130.825C152.343 129.52 146.499 128.171 141.135 125.244C137.89 123.47 134.55 121.892 132.481 118.697C130.825 116.138 129.738 113.316 130.585 110.166C131.483 106.804 132.269 103.391 133.446 100.124C135.096 95.5345 136.814 90.9453 138.938 86.5681C142.373 79.5033 146.22 72.6392 149.772 65.6302C151.005 63.2046 150.966 60.6173 149.036 58.5263C147.263 56.597 145.484 54.3888 143.226 53.2513C139.49 51.3722 135.464 49.7162 131.377 48.9801C127.914 48.3556 125.104 51.2439 122.494 53.2457C118.675 56.1787 114.994 59.3962 111.71 62.9146C103.625 71.5965 95.7181 80.4457 87.9061 89.3729C83.4843 94.4192 79.3692 99.7277 75.1648 104.952C73.5143 106.999 71.9921 109.146 70.4029 111.242C68.719 113.45 67.0294 115.653 65.3455 117.855C65.1782 117.76 65.0053 117.66 64.838 117.565C65.206 116.751 65.5127 115.909 65.9532 115.14C69.5832 108.822 73.1686 102.471 76.9157 96.2203C79.6591 91.6368 82.581 87.1648 85.4861 82.6872C91.9208 72.7675 98.6957 63.0596 104.746 52.9168C108.671 46.3482 112.229 39.3949 114.744 32.1907C118.089 22.6222 116.299 18.1167 108.169 12.4013C102.181 8.19693 95.5062 5.09107 88.4135 2.92199C82.5587 1.13208 76.7038 -0.0946335 70.5535 0.00573523C63.5778 0.122832 56.8531 1.28266 50.1731 3.36252C42.2941 5.82155 34.9783 9.33449 28.2648 13.9905C23.8932 17.0183 19.739 20.4475 15.9194 24.1444C12.4623 27.4845 9.1111 31.1257 6.58516 35.185C3.62428 39.9469 0.719171 44.8705 0.161567 50.8258C-0.206451 54.7847 -0.111664 58.582 2.247 61.7102C8.39737 69.8679 16.9343 73.2638 26.9935 73.1746C27.5455 73.169 28.2536 73.0407 28.6161 72.6894C29.1793 72.1429 29.8818 71.3288 29.8317 70.6764C29.7815 70.0073 29.0176 69.1598 28.354 68.8308C27.4061 68.3624 26.2742 68.1952 25.2036 68.0781C22.1535 67.7602 20.0457 64.5094 20.7037 61.7437C21.4509 58.6044 22.1033 55.2755 23.6924 52.5432C26.2964 48.0601 29.6086 43.984 32.6531 39.7573C37.4485 33.094 43.8944 28.1703 50.4574 23.4808C54.4164 20.6482 58.8103 18.3621 63.1652 16.1372C71.3564 11.9552 80.0718 9.89763 89.3057 10.6058C93.1699 10.9013 96.404 13.1541 95.1661 17.587C94.7033 19.2542 94.4022 21.0163 93.6271 22.5274C90.3261 28.9844 87.1087 35.5028 83.423 41.7369C76.5142 53.4242 69.2933 64.9164 62.234 76.5146C56.1394 86.5236 49.8775 96.4322 44.1007 106.625C40.086 113.718 36.5341 121.106 33.2275 128.567C31.4431 132.593 31.3483 136.819 34.0248 140.979C37.0694 145.708 41.7476 148.033 46.359 150.492C48.1378 151.44 50.3236 151.758 52.37 152.031C53.8644 152.232 55.3755 151.724 55.3811 149.756C55.3978 145.557 57.5223 142.15 59.7248 138.916C63.2042 133.797 66.9123 128.823 70.7654 123.983C76.9157 116.261 83.2166 108.655 89.5566 101.083C92.5007 97.5697 95.6902 94.2743 98.7459 90.8562C104.01 84.9567 109.251 79.035 114.526 73.1467C114.783 72.8623 115.279 72.7898 115.887 72.5221C115.134 74.5853 114.498 76.3139 113.874 78.0424C112.87 80.8249 111.76 83.5739 110.913 86.4009C109.993 89.49 109.151 92.6238 108.588 95.7965C107.757 100.469 106.558 105.203 106.675 109.887C106.87 117.621 111.125 123.186 118.028 126.671C123.297 129.331 128.533 132.069 133.869 134.583C139.15 137.07 144.38 139.819 149.912 141.57C158.532 144.302 167.387 146.293 175.941 148.54C175.054 149.338 173.71 150.207 172.796 151.406C166.707 159.391 169.718 166.456 177.535 169.986C182.258 172.121 187.182 173.733 192.345 174.541C195.97 175.104 199.538 176.136 203.174 176.448C208.215 176.883 213.306 177.106 218.358 176.95C226.153 176.705 233.948 176.186 241.727 175.539C245.412 175.233 249.143 174.675 252.684 173.649C257.367 172.289 261.895 170.393 266.468 168.653C268.319 167.95 270.243 167.259 271.882 166.177C273.722 164.967 275.255 163.289 276.962 161.861C281.205 158.304 285.287 154.863 286.948 149.031C288.51 143.561 290.266 138.213 290.69 132.487C291.08 127.134 289.117 122.645 286 118.508C282.554 113.93 277.642 112.045 272.239 111.069Z" fill="#292D32"/>
<path d="M351.235 78.2153C350.443 78.3101 349.35 79.1744 349.088 79.9216C347.309 85.0181 345.798 90.2038 344.041 95.3114C342.452 99.9284 340.785 104.534 338.9 109.034C338.159 110.802 336.731 112.279 335.616 113.885C335.348 113.802 335.081 113.712 334.813 113.629C335.008 111.393 335.042 109.123 335.432 106.921C336.302 102.042 337.317 97.1905 338.354 92.345C338.839 90.0867 338.192 88.2354 336.358 87.0143C333.174 84.8954 329.912 82.8769 325.93 82.5479C323.237 82.3248 323.148 82.5813 322.819 85.2021C322.295 89.4231 321.631 93.6442 320.661 97.7816C319.914 100.971 318.726 104.071 317.522 107.133C316.273 110.322 314.55 113.261 311.5 115.123C310.357 115.82 308.098 115.285 307.937 114.225C307.518 111.476 306.693 108.599 307.111 105.945C308.015 100.202 309.197 94.436 311.048 88.938C312.247 85.3693 314.533 82.0405 316.853 79.0015C319.747 75.2042 325.624 73.8102 328.295 80.3286C328.73 81.3937 330.414 82.2022 331.691 82.6204C333.966 83.3676 335.41 82.2691 335.008 79.9383C334.651 77.8696 333.581 75.918 332.772 73.9385C331.322 70.3922 328.551 67.7993 325.306 66.3384C317.5 62.8255 309.938 64.7213 303.247 69.3104C298.006 72.9069 294.409 78.1763 292.028 84.1148C288.577 92.7353 287.032 101.395 291.398 110.289C294.186 115.965 297.811 120.8 303.799 123.186C308.606 125.104 314.042 125.271 318.035 120.052C318.737 119.138 319.607 118.352 320.31 117.432C321.141 116.35 321.693 116.751 322.585 117.465C325.178 119.556 327.748 121.742 330.614 123.404C333.006 124.792 335.895 124.881 338.259 123.175C342.413 120.175 344.85 115.725 347.092 111.303C348.837 107.863 350.03 104.133 351.313 100.475C353.186 95.1163 355.076 89.7521 356.66 84.3043C357.77 80.4792 355.21 77.719 351.229 78.2041L351.235 78.2153Z" fill="#292D32"/>
<path d="M368.821 60.9402C368.765 60.4384 368.743 59.931 368.749 59.4292C368.866 51.5335 368.91 43.6323 369.128 35.7422C369.329 28.4543 365.163 23.6645 360.078 19.3653C359.509 18.8858 358.645 18.685 357.887 18.501C355.94 18.0438 355.087 18.9248 355.21 20.9378C355.444 24.7518 355.812 28.5825 355.684 32.391C355.494 38.1566 354.926 43.911 354.519 49.6655C354.558 49.6655 354.602 49.6711 354.641 49.6767C354.753 50.9703 354.887 52.2695 354.976 53.5632C355.31 58.3976 360.295 63.784 365.107 64.5033C368.375 64.994 369.178 64.219 368.816 60.9402H368.821Z" fill="#292D32"/>
<path d="M435.929 57.6286C435.26 57.5171 434.524 57.8683 433.81 57.9129C432.165 58.0189 430.52 58.0746 428.87 58.1248C427.899 58.1527 426.834 57.8572 425.976 58.1639C423.751 58.9501 421.531 59.8423 419.457 60.9519C414.138 63.7957 408.868 66.7454 403.627 69.7398C401.642 70.8717 399.824 72.3047 397.85 73.4589C397.449 73.6931 396.149 73.3084 396.149 73.1969C396.127 71.0947 395.703 68.7862 396.428 66.9294C397.778 63.4555 400.454 60.779 403.309 58.359C404.263 57.5449 404.909 57.6007 405.88 58.4761C407.742 60.1657 411.344 59.4129 412.052 57.0152C412.811 54.4391 413.212 51.679 413.257 48.9858C413.301 46.51 411.891 45.0658 409.365 44.8371C402.874 44.2517 396.568 44.9599 390.702 48.1493C386.425 50.4746 382.934 53.6194 381.54 58.3311C380.743 61.0244 380.676 64.0076 380.72 66.8513C380.815 72.5054 383.464 76.8269 388.438 80.0219C385.527 82.2579 382.733 84.5441 379.795 86.6295C371.882 92.239 366.691 99.5548 365.375 109.307C365.141 111.03 364.868 113.054 365.531 114.526C366.875 117.504 368.687 120.314 370.628 122.957C371.598 124.279 373.12 125.5 374.648 126.058C380.157 128.06 385.862 128.712 391.733 127.981C399.077 127.067 404.525 123.337 408.305 117.114C410.218 113.963 411.127 110.484 411.941 106.832C413.128 101.506 411.606 97.0902 409.024 92.8636C406.593 88.8767 403.705 85.1742 400.789 81.0257C402.116 79.9049 403.677 78.4663 405.361 77.1949C407.246 75.7674 409.236 74.4738 411.194 73.1467C417.355 68.9703 423.74 65.2231 430.743 62.5912C432.695 61.8608 434.568 60.9017 436.425 59.9482C436.86 59.7252 437.094 59.1063 437.423 58.6657C436.933 58.3033 436.475 57.7178 435.94 57.6286H435.929ZM388.962 114.315C387.769 115.447 386.709 116.885 385.287 117.577C382.293 119.037 378.484 118.853 377.916 115.625C377.498 113.266 377.431 110.634 378.038 108.343C379.851 101.479 384.194 96.0642 388.934 90.9621C389.865 89.9584 390.841 88.9938 391.761 87.979C392.904 86.7188 394.064 86.8303 394.627 88.3191C395.653 91.0458 396.389 93.884 396.913 95.6014C396.411 103.67 393.991 109.575 388.967 114.32L388.962 114.315Z" fill="#292D32"/>
</svg>
