<svg width="991" height="200" viewBox="0 0 991 200" fill="none" xmlns="http://www.w3.org/2000/svg">
<path d="M189.521 74.243C190.559 74.0366 191.648 74.0709 192.674 73.8416C197.908 72.6778 202.466 70.4707 204.323 64.99C204.822 63.5166 204.988 61.447 204.323 60.1457C202.024 55.6281 197.839 53.524 193.035 52.4749C189.297 51.6608 185.909 51.8558 183.364 55.2669C180.916 58.5519 180.153 62.2725 180.193 66.0849C179.953 71.9325 183.954 75.3437 189.515 74.2373L189.521 74.243Z" fill="#292D32"/>
<path d="M307.619 125.506C304.804 124.996 304.334 124.452 305.653 121.998C307.894 117.784 310.291 113.616 312.991 109.695C316.677 104.329 320.805 99.2668 324.56 93.9466C325.592 92.4732 326.378 90.5814 326.59 88.7984C327.782 78.8403 316.872 71.4161 309.672 73.0156C304.008 74.2768 298.492 76.2605 292.954 78.0664C291.068 78.6855 289.44 79.0065 287.789 77.5561C286.568 76.4783 285.226 75.5381 283.896 74.5807C279.929 71.7199 274.85 72.1156 271.255 75.2458C267.649 78.3817 267.236 85.5536 269.381 90.5642C269.862 91.6879 270.562 93.2128 270.166 94.1244C269.094 96.6468 267.701 99.0948 266.055 101.291C262.197 106.433 258.333 111.593 254.079 116.403C248.988 122.17 243.663 127.725 235.47 129.198C232.111 129.812 230.202 128.923 230.528 125.512C230.901 121.648 231.428 117.647 232.816 114.064C236.869 103.601 241.301 93.2874 245.749 82.9795C247.974 77.8314 250.599 72.8609 252.944 67.7643C253.718 66.0673 254.865 65.2417 256.676 65.1041C260.477 64.8117 264.272 64.5137 268.068 64.141C274.747 63.4989 281.42 62.8454 288.093 62.123C296.606 61.2057 305.108 60.2025 313.622 59.2565C322.766 58.2361 331.933 57.3876 341.042 56.1551C345.984 55.4958 351.092 55.576 355.765 53.3573C358.757 51.9355 361.905 50.8177 364.84 49.287C365.728 48.8226 366.692 47.3492 366.583 46.4491C366.474 45.5203 365.235 44.5401 364.267 43.9611C363.504 43.5082 362.369 43.4336 361.446 43.5368C357.553 43.9897 353.678 44.6089 349.791 45.1077C346.81 45.4918 343.817 46.0192 340.825 46.0765C325.942 46.3459 311.053 46.4721 296.165 46.6613C284.63 46.8046 273.101 46.9766 261.561 47.1085C260.741 47.1199 259.921 46.9364 258.706 46.7988C259.543 45.6924 260.363 45.0732 260.54 44.3107C261.372 40.5671 262.151 36.812 262.713 33.0283C263.006 31.0963 261.945 30.0128 259.904 29.428C253.867 27.7024 247.785 27.7024 241.696 28.6427C240.355 28.8433 238.663 30.0701 238.073 31.2912C236.479 34.5762 235.47 38.1479 234.071 41.536C232.019 46.5122 231.698 46.581 226.452 45.9733C215.841 44.7408 205.217 43.554 194.589 42.396C193.304 42.2584 191.94 42.201 190.69 42.4532C187.961 42.9979 187.239 45.165 188.913 47.3779C191 50.124 194.331 50.5597 197.243 51.0928C206.284 52.7611 215.411 53.9593 224.515 55.2492C227.622 55.6906 228.115 56.0347 227.266 59.1821C226.194 63.1493 224.847 67.059 223.546 70.9632C221.619 76.7592 219.67 82.5494 217.646 88.3053C215.038 95.7123 211.747 102.844 206.674 108.869C202.11 114.281 197.077 119.292 192.135 124.366C190.518 126.028 188.678 127.587 186.671 128.746C184.12 130.219 183.146 129.525 183.667 126.624C184.2 123.678 185.169 120.811 186.041 117.928C187.52 113.032 189.085 108.164 190.616 103.28C192.169 98.3208 193.878 93.402 195.248 88.3914C195.999 85.6396 194.801 83.4439 192.553 81.5406C188.552 78.1639 183.828 76.4554 178.926 75.2458C177.911 74.9993 175.716 76.2261 175.366 77.2294C173.377 82.9623 171.823 88.85 170.029 94.6517C168.355 100.069 166.572 105.453 164.794 110.836C162.667 117.308 161.274 123.62 164.823 130.23C169.811 139.529 180.623 142.636 189.847 138.784C195.334 136.497 199.376 132.329 203.102 127.828C203.945 126.808 204.908 125.879 206.083 124.635C208.371 129.548 211.489 132.982 215.749 135.505C220.863 138.52 226.292 140.762 232.191 140.418C238.342 140.062 244.201 138.492 249.648 134.972C257.29 130.041 263.671 123.832 269.449 117.022C273.268 112.521 276.249 107.293 279.482 102.317C280.399 100.906 281.38 100.144 283.065 100.454C287.955 101.348 292.364 99.9203 296.606 97.6615C297.271 97.3061 298.011 97.0997 298.716 96.8245C298.739 97.8909 298.435 98.6017 298.005 99.2209C296.606 101.233 295.099 103.165 293.751 105.2C289.698 111.306 286.419 117.784 285.53 125.151C284.905 130.356 287.055 137.528 293.923 137.907C298.338 138.153 302.786 138.027 307.207 137.769C308.875 137.666 309.5 137.976 309.941 139.598C310.967 143.399 309.872 146.925 308.772 150.399C305.693 160.088 301.714 169.363 292.519 174.867C287.611 177.802 282.417 180.543 277 182.245C272.677 183.598 267.821 183.57 263.2 183.57C255.226 183.564 247.246 182.956 239.271 182.865C227.897 182.733 216.907 180.726 206.335 176.604C204.879 176.037 203.348 174.506 202.827 173.061C202.317 171.68 206.576 168.618 208.233 168.744C214.327 169.209 220.41 169.834 226.51 170.029C234.696 170.286 242.866 169.822 250.68 167.099C254.269 165.849 258.133 164.427 258.385 159.635C258.551 156.648 257.743 153.919 256.057 151.322C253.254 147.005 250.181 143.044 245.176 141.226C244.11 140.842 242.688 141.444 241.427 141.599C241.857 142.625 242.046 143.875 242.751 144.637C245.618 147.756 244.729 149.327 241.266 150.324C232.844 152.761 224.228 153.191 215.565 152.509C208.187 151.93 200.82 151.179 193.476 150.279C188.546 149.671 183.616 148.885 178.766 147.808C172.15 146.334 165.545 144.809 159.486 141.501C155.817 139.501 152.044 137.718 149.705 134.106C147.836 131.217 146.604 128.023 147.561 124.469C148.576 120.668 149.465 116.815 150.795 113.123C152.658 107.941 154.601 102.752 156.998 97.8049C160.879 89.8246 165.224 82.0679 169.237 74.145C170.631 71.4046 170.585 68.4808 168.406 66.1189C166.405 63.9403 164.393 61.4466 161.842 60.1566C157.623 58.0355 153.071 56.1608 148.456 55.3295C144.546 54.6244 141.37 57.8864 138.417 60.1509C134.1 63.4645 129.944 67.0993 126.235 71.0779C117.096 80.887 108.164 90.8852 99.3356 100.975C94.3422 106.679 89.6871 112.676 84.9402 118.581C83.077 120.891 81.3571 123.317 79.557 125.69C77.6536 128.184 75.7446 130.672 73.8412 133.16C73.652 133.051 73.4571 132.942 73.2679 132.833C73.6864 131.916 74.0304 130.964 74.5292 130.093C78.6282 122.955 82.6814 115.778 86.9181 108.715C90.0196 103.538 93.3218 98.4814 96.601 93.4249C103.87 82.217 111.524 71.2498 118.363 59.7897C122.801 52.3655 126.819 44.5114 129.657 36.3707C133.435 25.5583 131.417 20.4675 122.227 14.0122C115.462 9.25955 107.918 5.75103 99.9032 3.30306C93.2874 1.27933 86.6716 -0.108046 79.7232 0.00661339C71.8404 0.138471 64.2443 1.45124 56.694 3.80175C47.7907 6.58223 39.5238 10.5494 31.9391 15.8122C26.9973 19.2348 22.3078 23.1103 17.9909 27.2839C14.0867 31.0562 10.2972 35.1724 7.44224 39.7588C4.0942 45.142 0.814949 50.703 0.184325 57.4335C-0.234181 61.9052 -0.125254 66.1991 2.54057 69.7306C9.4889 78.9492 19.1374 82.7846 30.5001 82.6814C31.125 82.6757 31.9219 82.5324 32.3347 82.1311C32.971 81.5119 33.7622 80.5945 33.7106 79.855C33.6533 79.0982 32.7933 78.1409 32.0423 77.7682C30.9703 77.2408 29.6918 77.0516 28.4821 76.9198C25.0366 76.5586 22.6517 72.8895 23.397 69.7651C24.2398 66.2164 24.9793 62.4555 26.7737 59.3712C29.7147 54.3032 33.4583 49.6997 36.8981 44.9242C42.3158 37.3968 49.6023 31.8301 57.015 26.5328C61.4867 23.3338 66.4514 20.7483 71.376 18.2373C80.629 13.5133 90.4782 11.1858 100.912 11.9884C105.281 12.3209 108.933 14.8664 107.534 19.877C107.012 21.7631 106.668 23.7524 105.797 25.4608C102.065 32.7589 98.4298 40.1199 94.2677 47.1657C86.4594 60.3687 78.3015 73.3538 70.3269 86.4593C63.4417 97.7704 56.3672 108.967 49.8374 120.479C45.3026 128.493 41.2896 136.841 37.5517 145.268C35.5337 149.814 35.4305 154.59 38.4517 159.291C41.8915 164.634 47.1773 167.26 52.3885 170.04C54.4008 171.112 56.866 171.467 59.1821 171.777C60.8733 172.006 62.576 171.433 62.5817 169.209C62.5989 164.462 65.001 160.615 67.4891 156.963C71.4219 151.179 75.6127 145.56 79.964 140.091C86.9123 131.366 94.0327 122.772 101.199 114.218C104.524 110.251 108.13 106.525 111.581 102.661C117.526 95.9932 123.448 89.3029 129.411 82.6527C129.703 82.3317 130.259 82.2514 130.947 81.9476C130.099 84.2809 129.376 86.23 128.671 88.185C127.536 91.3266 126.28 94.4339 125.323 97.6271C124.285 101.118 123.334 104.656 122.697 108.245C121.757 113.525 120.404 118.873 120.536 124.165C120.754 132.902 125.564 139.191 133.366 143.13C139.323 146.134 145.234 149.229 151.265 152.067C157.233 154.876 163.143 157.984 169.392 159.961C179.133 163.046 189.137 165.299 198.802 167.839C197.799 168.739 196.28 169.725 195.248 171.078C188.368 180.101 191.768 188.082 200.602 192.072C205.94 194.485 211.501 196.308 217.337 197.22C221.43 197.856 225.466 199.02 229.571 199.375C235.264 199.868 241.02 200.121 246.73 199.943C255.536 199.668 264.347 199.077 273.136 198.349C277.298 198.005 281.517 197.375 285.513 196.211C290.805 194.675 295.924 192.53 301.089 190.564C303.182 189.773 305.355 188.987 307.207 187.766C309.288 186.402 311.019 184.504 312.945 182.888C317.738 178.869 322.353 174.982 324.228 168.389C325.993 162.209 327.977 156.166 328.453 149.694C328.894 143.646 326.676 138.572 323.156 133.899C319.263 128.728 313.713 126.596 307.608 125.495L307.619 125.506Z" fill="#292D32"/>
<path d="M396.881 88.3796C395.987 88.4886 394.754 89.4631 394.456 90.3058C392.444 96.0617 390.736 101.927 388.752 107.694C386.957 112.911 385.071 118.111 382.944 123.202C382.107 125.197 380.496 126.865 379.235 128.682C378.931 128.585 378.633 128.487 378.329 128.39C378.553 125.862 378.587 123.299 379.029 120.811C380.015 115.302 381.161 109.815 382.331 104.34C382.876 101.789 382.148 99.6965 380.078 98.3206C376.483 95.9243 372.791 93.6482 368.297 93.2699C365.253 93.0176 365.155 93.3043 364.782 96.2739C364.186 101.044 363.441 105.814 362.346 110.486C361.503 114.092 360.156 117.595 358.803 121.052C357.387 124.658 355.443 127.977 351.998 130.081C350.708 130.872 348.157 130.265 347.973 129.066C347.503 125.959 346.569 122.708 347.039 119.71C348.059 113.226 349.395 106.708 351.482 100.499C352.841 96.463 355.421 92.7023 358.041 89.2683C361.314 84.9743 367.947 83.4034 370.968 90.7702C371.461 91.9742 373.365 92.8857 374.804 93.3558C377.378 94.1985 379.006 92.9602 378.553 90.323C378.152 87.9897 376.942 85.7827 376.03 83.5468C374.397 79.5395 371.261 76.61 367.597 74.9646C358.78 70.9974 350.238 73.1357 342.676 78.324C336.754 82.3887 332.689 88.3452 330.001 95.0527C326.102 104.793 324.359 114.579 329.29 124.629C332.437 131.044 336.531 136.502 343.301 139.202C348.736 141.369 354.876 141.558 359.388 135.665C360.179 134.627 361.165 133.739 361.956 132.707C362.896 131.486 363.521 131.933 364.53 132.747C367.46 135.109 370.366 137.58 373.6 139.455C376.3 141.02 379.568 141.123 382.239 139.196C386.935 135.808 389.686 130.781 392.22 125.781C394.192 121.894 395.54 117.681 396.99 113.547C399.111 107.493 401.244 101.434 403.033 95.2764C404.288 90.9538 401.399 87.835 396.898 88.3854L396.881 88.3796Z" fill="#292D32"/>
<path d="M416.746 68.8591C416.683 68.2916 416.66 67.7183 416.666 67.1507C416.797 58.2303 416.849 49.3041 417.096 40.3836C417.325 32.1511 412.618 26.7335 406.868 21.8777C406.226 21.333 405.251 21.1037 404.391 20.9031C402.19 20.3871 401.233 21.379 401.37 23.6549C401.634 27.9661 402.052 32.2944 401.909 36.5998C401.691 43.1125 401.055 49.6137 400.596 56.1205C400.642 56.1205 400.688 56.1263 400.74 56.132C400.866 57.5939 401.015 59.0615 401.118 60.5234C401.496 65.9869 407.126 72.0753 412.567 72.8837C416.259 73.434 417.164 72.5626 416.752 68.8534L416.746 68.8591Z" fill="#292D32"/>
<path d="M492.575 65.1212C491.818 64.9951 490.987 65.3907 490.179 65.4423C488.321 65.5627 486.458 65.6257 484.595 65.6773C483.5 65.706 482.296 65.3792 481.327 65.7232C478.81 66.6118 476.311 67.6151 473.96 68.8763C467.946 72.0925 461.995 75.4234 456.073 78.8058C453.832 80.09 451.779 81.7066 449.543 83.008C449.085 83.2774 447.623 82.836 447.617 82.7099C447.588 80.3307 447.118 77.7223 447.932 75.6298C449.457 71.7027 452.484 68.6813 455.706 65.9467C456.784 65.0295 457.518 65.0925 458.607 66.0843C460.717 67.9991 464.782 67.145 465.578 64.4333C466.438 61.521 466.886 58.4022 466.943 55.3637C466.994 52.5661 465.395 50.9379 462.546 50.68C455.213 50.0207 448.087 50.8176 441.454 54.4236C436.621 57.055 432.677 60.6037 431.106 65.9297C430.206 68.9681 430.126 72.339 430.183 75.5552C430.292 81.9417 433.285 86.8262 438.903 90.438C435.612 92.9605 432.453 95.5459 429.134 97.9022C420.196 104.243 414.326 112.504 412.841 123.529C412.577 125.472 412.268 127.759 413.019 129.422C414.538 132.787 416.585 135.963 418.775 138.95C419.87 140.446 421.59 141.822 423.321 142.453C429.541 144.712 435.991 145.451 442.629 144.626C450.925 143.594 457.082 139.38 461.353 132.346C463.515 128.786 464.541 124.853 465.464 120.731C466.811 114.717 465.085 109.724 462.167 104.948C459.421 100.448 456.153 96.2569 452.863 91.5731C454.359 90.3061 456.125 88.6837 458.028 87.239C460.161 85.628 462.402 84.1661 464.615 82.6641C471.575 77.9459 478.793 73.7149 486.704 70.7395C488.906 69.914 491.021 68.8305 493.125 67.7584C493.618 67.5062 493.882 66.8067 494.255 66.308C493.699 65.8952 493.188 65.2359 492.581 65.1384L492.575 65.1212ZM439.505 129.175C438.152 130.454 436.96 132.076 435.354 132.862C431.966 134.513 427.666 134.306 427.024 130.655C426.554 127.989 426.474 125.013 427.162 122.428C429.209 114.671 434.116 108.554 439.471 102.792C440.525 101.657 441.626 100.568 442.664 99.4215C443.954 97.994 445.267 98.1201 445.897 99.8055C447.055 102.89 447.887 106.095 448.483 108.038C447.915 117.153 445.181 123.827 439.505 129.187V129.175Z" fill="#292D32"/>
<path d="M542.271 77.3906V70.9844H547.856V77.3906H542.271ZM547.466 131.258C547.466 132.872 547.153 134.383 546.528 135.789C545.929 137.221 545.096 138.471 544.028 139.539C542.961 140.607 541.711 141.453 540.278 142.078C538.846 142.703 537.323 143.016 535.708 143.016V138.445C536.672 138.445 537.57 138.263 538.403 137.898C539.263 137.534 540.005 137.039 540.63 136.414C541.255 135.789 541.75 135.047 542.114 134.188C542.479 133.354 542.661 132.456 542.661 131.492V87H547.466V131.258ZM585.435 116.023C585.435 117.638 585.122 119.161 584.497 120.594C583.898 122.026 583.065 123.276 581.997 124.344C580.929 125.411 579.679 126.258 578.247 126.883C576.815 127.482 575.291 127.781 573.677 127.781H570.474C568.859 127.781 567.336 127.482 565.903 126.883C564.471 126.258 563.221 125.411 562.153 124.344C561.086 123.276 560.239 122.026 559.614 120.594C559.015 119.161 558.716 117.638 558.716 116.023V97.9766C558.716 96.362 559.015 94.8385 559.614 93.4062C560.239 91.974 561.086 90.724 562.153 89.6562C563.221 88.5885 564.471 87.7552 565.903 87.1562C567.336 86.5312 568.859 86.2188 570.474 86.2188H573.677C575.291 86.2188 576.815 86.5312 578.247 87.1562C579.679 87.7552 580.929 88.5885 581.997 89.6562C583.065 90.724 583.898 91.974 584.497 93.4062C585.122 94.8385 585.435 96.362 585.435 97.9766V107.391H563.521V116.297C563.521 117.26 563.703 118.172 564.067 119.031C564.432 119.865 564.927 120.594 565.552 121.219C566.177 121.844 566.906 122.339 567.739 122.703C568.599 123.068 569.51 123.25 570.474 123.25H573.677C574.64 123.25 575.539 123.068 576.372 122.703C577.231 122.339 577.974 121.844 578.599 121.219C579.224 120.594 579.718 119.865 580.083 119.031C580.448 118.172 580.63 117.26 580.63 116.297V113.641L585.435 114.422V116.023ZM580.63 97.7031C580.63 96.7396 580.448 95.8411 580.083 95.0078C579.718 94.1484 579.224 93.4062 578.599 92.7812C577.974 92.1562 577.231 91.6615 576.372 91.2969C575.539 90.9323 574.64 90.75 573.677 90.75H570.474C569.51 90.75 568.599 90.9323 567.739 91.2969C566.906 91.6615 566.177 92.1562 565.552 92.7812C564.927 93.4062 564.432 94.1484 564.067 95.0078C563.703 95.8411 563.521 96.7396 563.521 97.7031V103.641H580.63V97.7031ZM628.716 127H626.099L616.724 96.8438L616.567 94.7734L616.411 96.8438L607.036 127H604.38L591.021 87H595.903L605.435 117.234L605.591 119.305L605.747 117.234L615.122 87H618.013L627.349 117.234L627.505 119.305L627.661 117.234L637.192 87H642.075L628.716 127ZM674.419 116.023C674.419 117.638 674.106 119.161 673.481 120.594C672.882 122.026 672.049 123.276 670.981 124.344C669.914 125.411 668.664 126.258 667.231 126.883C665.799 127.482 664.276 127.781 662.661 127.781H659.458C657.843 127.781 656.32 127.482 654.888 126.883C653.455 126.258 652.205 125.411 651.138 124.344C650.07 123.276 649.224 122.026 648.599 120.594C648 119.161 647.7 117.638 647.7 116.023V97.9766C647.7 96.362 648 94.8385 648.599 93.4062C649.224 91.974 650.07 90.724 651.138 89.6562C652.205 88.5885 653.455 87.7552 654.888 87.1562C656.32 86.5312 657.843 86.2188 659.458 86.2188H662.661C664.276 86.2188 665.799 86.5312 667.231 87.1562C668.664 87.7552 669.914 88.5885 670.981 89.6562C672.049 90.724 672.882 91.974 673.481 93.4062C674.106 94.8385 674.419 96.362 674.419 97.9766V107.391H652.505V116.297C652.505 117.26 652.687 118.172 653.052 119.031C653.416 119.865 653.911 120.594 654.536 121.219C655.161 121.844 655.89 122.339 656.724 122.703C657.583 123.068 658.494 123.25 659.458 123.25H662.661C663.625 123.25 664.523 123.068 665.356 122.703C666.216 122.339 666.958 121.844 667.583 121.219C668.208 120.594 668.703 119.865 669.067 119.031C669.432 118.172 669.614 117.26 669.614 116.297V113.641L674.419 114.422V116.023ZM669.614 97.7031C669.614 96.7396 669.432 95.8411 669.067 95.0078C668.703 94.1484 668.208 93.4062 667.583 92.7812C666.958 92.1562 666.216 91.6615 665.356 91.2969C664.523 90.9323 663.625 90.75 662.661 90.75H659.458C658.494 90.75 657.583 90.9323 656.724 91.2969C655.89 91.6615 655.161 92.1562 654.536 92.7812C653.911 93.4062 653.416 94.1484 653.052 95.0078C652.687 95.8411 652.505 96.7396 652.505 97.7031V103.641H669.614V97.7031ZM685.63 127V70.9844H690.435V127H685.63ZM713.442 91.5703C712.479 91.5703 711.567 91.7526 710.708 92.1172C709.875 92.4818 709.146 92.9766 708.521 93.6016C707.896 94.2266 707.401 94.9688 707.036 95.8281C706.672 96.6615 706.489 97.5599 706.489 98.5234V127H701.685V87H703.286L705.903 91.0625C706.997 89.5781 708.364 88.4062 710.005 87.5469C711.672 86.6615 713.481 86.2188 715.435 86.2188H718.247V91.5703H713.442ZM731.138 143.016H726.489L733.599 123.562L720.63 87H725.435L735.864 117.312L736.021 119.383L736.177 117.312L746.567 87H751.372L731.138 143.016ZM812.505 127.781C810.239 127.781 808.26 127.299 806.567 126.336C804.901 125.372 803.573 124.07 802.583 122.43C801.281 124.07 799.679 125.372 797.778 126.336C795.877 127.299 793.82 127.781 791.606 127.781H789.224C787.323 127.781 785.526 127.43 783.833 126.727C782.166 125.997 780.708 125.008 779.458 123.758C778.208 122.508 777.218 121.049 776.489 119.383C775.786 117.716 775.435 115.932 775.435 114.031V110.984C775.435 109.656 775.604 108.393 775.942 107.195C776.307 105.971 776.815 104.839 777.466 103.797C778.117 102.755 778.885 101.818 779.771 100.984C780.656 100.125 781.646 99.4089 782.739 98.8359C781.646 98.263 780.656 97.5599 779.771 96.7266C778.885 95.8672 778.117 94.9167 777.466 93.875C776.815 92.8333 776.307 91.7135 775.942 90.5156C775.604 89.2917 775.435 88.0156 775.435 86.6875V83.9531C775.435 82.0521 775.786 80.2682 776.489 78.6016C777.218 76.9349 778.208 75.4766 779.458 74.2266C780.708 72.9766 782.166 72 783.833 71.2969C785.526 70.5677 787.323 70.2031 789.224 70.2031H791.606C793.507 70.2031 795.291 70.5677 796.958 71.2969C798.625 72 800.083 72.9766 801.333 74.2266C802.583 75.4766 803.56 76.9349 804.263 78.6016C804.992 80.2682 805.356 82.0521 805.356 83.9531V84.3438L800.317 85.1641V83.9531C800.317 82.7031 800.083 81.5443 799.614 80.4766C799.146 79.3828 798.507 78.4323 797.7 77.625C796.893 76.8177 795.942 76.1797 794.849 75.7109C793.781 75.2422 792.622 75.0078 791.372 75.0078H789.458C788.208 75.0078 787.036 75.2422 785.942 75.7109C784.875 76.1797 783.924 76.8177 783.091 77.625C782.284 78.4323 781.646 79.3828 781.177 80.4766C780.708 81.5443 780.474 82.7031 780.474 83.9531V87.4688C780.474 88.7188 780.708 89.8906 781.177 90.9844C781.646 92.0521 782.284 93.0026 783.091 93.8359C783.924 94.6432 784.875 95.2812 785.942 95.75C787.036 96.2188 788.208 96.4531 789.458 96.4531H800.317V91.3359L805.356 90.5156V96.375H813.13V101.141H805.356V114.617C805.409 115.789 805.591 116.883 805.903 117.898C806.216 118.914 806.672 119.812 807.271 120.594C807.896 121.349 808.664 121.948 809.575 122.391C810.487 122.807 811.541 123.016 812.739 123.016H813.911L813.208 127.781H812.505ZM791.372 123.016C792.57 123.016 793.703 122.794 794.771 122.352C795.838 121.909 796.763 121.297 797.544 120.516C798.351 119.734 799.002 118.823 799.497 117.781C799.992 116.74 800.265 115.62 800.317 114.422V101.258H789.458C788.208 101.258 787.036 101.492 785.942 101.961C784.875 102.43 783.924 103.068 783.091 103.875C782.284 104.682 781.646 105.633 781.177 106.727C780.708 107.794 780.474 108.953 780.474 110.203V114.031C780.474 115.281 780.708 116.453 781.177 117.547C781.646 118.615 782.284 119.565 783.091 120.398C783.924 121.206 784.875 121.844 785.942 122.312C787.036 122.781 788.208 123.016 789.458 123.016H791.372ZM885.005 127V97.7031C885.005 96.7396 884.823 95.8411 884.458 95.0078C884.093 94.1484 883.599 93.4062 882.974 92.7812C882.349 92.1562 881.606 91.6615 880.747 91.2969C879.914 90.9323 879.015 90.75 878.052 90.75H875.669C874.705 90.75 873.794 90.9323 872.935 91.2969C872.101 91.6615 871.359 92.1562 870.708 92.7812C870.083 93.4062 869.588 94.1484 869.224 95.0078C868.859 95.8411 868.677 96.7396 868.677 97.7031V127H863.911V97.7031C863.911 96.7396 863.729 95.8411 863.364 95.0078C863 94.1484 862.492 93.4062 861.841 92.7812C861.216 92.1562 860.474 91.6615 859.614 91.2969C858.781 90.9323 857.882 90.75 856.919 90.75H854.536C853.573 90.75 852.661 90.9323 851.802 91.2969C850.968 91.6615 850.239 92.1562 849.614 92.7812C848.989 93.4062 848.494 94.1484 848.13 95.0078C847.765 95.8411 847.583 96.7396 847.583 97.7031V127H842.778V87H844.38L846.997 91.0625C848.091 89.5781 849.458 88.4062 851.099 87.5469C852.765 86.6615 854.575 86.2188 856.528 86.2188H856.919C859.185 86.2188 861.229 86.7786 863.052 87.8984C864.875 89.0182 866.281 90.5026 867.271 92.3516C867.765 91.4401 868.377 90.6068 869.106 89.8516C869.836 89.0964 870.643 88.4583 871.528 87.9375C872.414 87.3906 873.377 86.974 874.419 86.6875C875.461 86.375 876.541 86.2188 877.661 86.2188H878.052C879.666 86.2188 881.19 86.5312 882.622 87.1562C884.054 87.7552 885.304 88.5885 886.372 89.6562C887.44 90.724 888.273 91.974 888.872 93.4062C889.497 94.8385 889.81 96.362 889.81 97.9766V127H885.005ZM926.138 116.023C926.138 117.638 925.825 119.161 925.2 120.594C924.601 122.026 923.768 123.276 922.7 124.344C921.632 125.411 920.382 126.258 918.95 126.883C917.518 127.482 915.994 127.781 914.38 127.781H911.177C909.562 127.781 908.039 127.482 906.606 126.883C905.174 126.258 903.924 125.411 902.856 124.344C901.789 123.276 900.942 122.026 900.317 120.594C899.718 119.161 899.419 117.638 899.419 116.023V97.9766C899.419 96.362 899.718 94.8385 900.317 93.4062C900.942 91.974 901.789 90.724 902.856 89.6562C903.924 88.5885 905.174 87.7552 906.606 87.1562C908.039 86.5312 909.562 86.2188 911.177 86.2188H914.38C915.994 86.2188 917.518 86.5312 918.95 87.1562C920.382 87.7552 921.632 88.5885 922.7 89.6562C923.768 90.724 924.601 91.974 925.2 93.4062C925.825 94.8385 926.138 96.362 926.138 97.9766V116.023ZM921.333 97.7031C921.333 96.7396 921.151 95.8411 920.786 95.0078C920.422 94.1484 919.927 93.4062 919.302 92.7812C918.677 92.1562 917.935 91.6615 917.075 91.2969C916.242 90.9323 915.343 90.75 914.38 90.75H911.177C910.213 90.75 909.302 90.9323 908.442 91.2969C907.609 91.6615 906.88 92.1562 906.255 92.7812C905.63 93.4062 905.135 94.1484 904.771 95.0078C904.406 95.8411 904.224 96.7396 904.224 97.7031V116.297C904.224 117.26 904.406 118.172 904.771 119.031C905.135 119.865 905.63 120.594 906.255 121.219C906.88 121.844 907.609 122.339 908.442 122.703C909.302 123.068 910.213 123.25 911.177 123.25H914.38C915.343 123.25 916.242 123.068 917.075 122.703C917.935 122.339 918.677 121.844 919.302 121.219C919.927 120.594 920.422 119.865 920.786 119.031C921.151 118.172 921.333 117.26 921.333 116.297V97.7031ZM947.505 91.5703C946.541 91.5703 945.63 91.7526 944.771 92.1172C943.937 92.4818 943.208 92.9766 942.583 93.6016C941.958 94.2266 941.463 94.9688 941.099 95.8281C940.734 96.6615 940.552 97.5599 940.552 98.5234V127H935.747V87H937.349L939.966 91.0625C941.06 89.5781 942.427 88.4062 944.067 87.5469C945.734 86.6615 947.544 86.2188 949.497 86.2188H952.31V91.5703H947.505ZM985.435 116.023C985.435 117.638 985.122 119.161 984.497 120.594C983.898 122.026 983.065 123.276 981.997 124.344C980.929 125.411 979.679 126.258 978.247 126.883C976.815 127.482 975.291 127.781 973.677 127.781H970.474C968.859 127.781 967.336 127.482 965.903 126.883C964.471 126.258 963.221 125.411 962.153 124.344C961.086 123.276 960.239 122.026 959.614 120.594C959.015 119.161 958.716 117.638 958.716 116.023V97.9766C958.716 96.362 959.015 94.8385 959.614 93.4062C960.239 91.974 961.086 90.724 962.153 89.6562C963.221 88.5885 964.471 87.7552 965.903 87.1562C967.336 86.5312 968.859 86.2188 970.474 86.2188H973.677C975.291 86.2188 976.815 86.5312 978.247 87.1562C979.679 87.7552 980.929 88.5885 981.997 89.6562C983.065 90.724 983.898 91.974 984.497 93.4062C985.122 94.8385 985.435 96.362 985.435 97.9766V107.391H963.521V116.297C963.521 117.26 963.703 118.172 964.067 119.031C964.432 119.865 964.927 120.594 965.552 121.219C966.177 121.844 966.906 122.339 967.739 122.703C968.599 123.068 969.51 123.25 970.474 123.25H973.677C974.64 123.25 975.539 123.068 976.372 122.703C977.231 122.339 977.974 121.844 978.599 121.219C979.224 120.594 979.718 119.865 980.083 119.031C980.448 118.172 980.63 117.26 980.63 116.297V113.641L985.435 114.422V116.023ZM980.63 97.7031C980.63 96.7396 980.448 95.8411 980.083 95.0078C979.718 94.1484 979.224 93.4062 978.599 92.7812C977.974 92.1562 977.231 91.6615 976.372 91.2969C975.539 90.9323 974.64 90.75 973.677 90.75H970.474C969.51 90.75 968.599 90.9323 967.739 91.2969C966.906 91.6615 966.177 92.1562 965.552 92.7812C964.927 93.4062 964.432 94.1484 964.067 95.0078C963.703 95.8411 963.521 96.7396 963.521 97.7031V103.641H980.63V97.7031Z" fill="#292D32"/>
</svg>
