<svg width="495" height="658" viewBox="0 0 495 658" fill="none" xmlns="http://www.w3.org/2000/svg">
<path fill-rule="evenodd" clip-rule="evenodd" d="M417 170C417 263.888 340.888 340 247 340C153.112 340 77 263.888 77 170C77 76.1116 153.112 0 247 0C340.888 0 417 76.1116 417 170ZM299.348 238.389C301.814 239.009 304.268 239.625 306.696 240.263L306.684 240.257C310.871 240.787 314.764 241.04 314.764 241.04C316.188 241.149 317.611 241.267 319.035 241.386C322.835 241.702 326.636 242.019 330.439 242.141C337.459 242.365 344.468 241.962 351.171 239.63C354.252 238.558 357.563 237.338 357.782 233.226C357.926 230.663 357.235 228.325 355.79 226.096C353.383 222.393 350.745 218.996 346.455 217.441C345.829 217.211 345.055 217.385 344.281 217.559C343.93 217.637 343.579 217.716 343.241 217.758C343.358 218.037 343.454 218.334 343.55 218.632C343.757 219.273 343.963 219.912 344.376 220.361C346.835 223.033 346.075 224.38 343.103 225.238C335.876 227.335 328.487 227.697 321.058 227.116C314.729 226.62 308.412 225.975 302.112 225.204C297.879 224.685 293.658 224.006 289.494 223.085C283.822 221.823 278.161 220.516 272.961 217.677C272.65 217.507 272.338 217.339 272.027 217.17C269.188 215.638 266.382 214.123 264.576 211.331C262.969 208.849 261.915 206.113 262.739 203.061C262.935 202.325 263.126 201.586 263.317 200.848C263.971 198.316 264.626 195.781 265.509 193.329C267.104 188.883 268.768 184.437 270.83 180.193C272.77 176.201 274.846 172.276 276.922 168.35C278.407 165.542 279.892 162.733 281.328 159.899C282.52 157.549 282.486 155.044 280.614 153.017C280.36 152.74 280.105 152.458 279.849 152.174C278.373 150.535 276.847 148.841 274.982 147.903C271.36 146.083 267.461 144.477 263.499 143.763C260.65 143.25 258.258 145.187 256.054 146.971C255.66 147.29 255.273 147.603 254.89 147.898C251.187 150.737 247.622 153.858 244.437 157.267C236.6 165.681 228.94 174.261 221.368 182.911C218.117 186.62 215.039 190.479 211.962 194.335C210.984 195.562 210.005 196.789 209.021 198.011C207.949 199.341 206.93 200.716 205.91 202.092C205.411 202.764 204.913 203.436 204.408 204.104C203.494 205.304 202.577 206.502 201.66 207.698C200.942 208.636 200.223 209.574 199.507 210.513C199.346 210.421 199.179 210.323 199.018 210.231C199.127 209.99 199.231 209.746 199.334 209.502C199.57 208.949 199.804 208.397 200.1 207.881C200.919 206.457 201.735 205.032 202.551 203.606C205.243 198.901 207.937 194.194 210.725 189.545C213.14 185.506 215.703 181.558 218.266 177.609C218.521 177.217 218.775 176.825 219.03 176.432C221.025 173.356 223.055 170.301 225.084 167.246C229.396 160.755 233.708 154.265 237.694 147.581C241.5 141.217 244.95 134.474 247.386 127.494C250.628 118.222 248.895 113.857 241.017 108.317C235.212 104.246 228.745 101.234 221.869 99.132C216.19 97.3986 210.518 96.2065 204.558 96.3044C197.797 96.4196 191.278 97.5425 184.805 99.5581C177.169 101.942 170.08 105.346 163.572 109.861C159.334 112.798 155.308 116.12 151.605 119.702C148.254 122.939 145.006 126.469 142.558 130.402C139.69 135.015 136.874 139.789 136.333 145.56C135.976 149.401 136.068 153.08 138.354 156.11C144.315 164.016 152.59 167.305 162.34 167.218C162.875 167.213 163.561 167.086 163.912 166.746C164.459 166.216 165.139 165.427 165.093 164.794C165.041 164.143 164.304 163.32 163.659 163.003C162.743 162.548 161.643 162.387 160.606 162.271C157.652 161.966 155.608 158.81 156.247 156.133C156.331 155.782 156.413 155.43 156.496 155.076C157.13 152.357 157.783 149.562 159.144 147.218C160.975 144.061 163.172 141.113 165.366 138.167C166.194 137.056 167.021 135.946 167.828 134.825C172.475 128.369 178.724 123.595 185.081 119.052C188.922 116.305 193.178 114.088 197.399 111.934C205.335 107.88 213.783 105.887 222.732 106.572C226.476 106.86 229.608 109.043 228.411 113.339C228.295 113.755 228.189 114.178 228.083 114.602C227.779 115.818 227.474 117.04 226.919 118.125C226.439 119.064 225.961 120.005 225.483 120.946C222.776 126.275 220.066 131.609 217.031 136.743C212.644 144.163 208.128 151.502 203.612 158.841C201.234 162.706 198.855 166.572 196.495 170.449C194.992 172.916 193.478 175.378 191.965 177.839C187.529 185.052 183.093 192.265 178.919 199.629C175.026 206.505 171.583 213.663 168.381 220.896C166.653 224.801 166.561 228.895 169.152 232.926C171.96 237.282 176.192 239.532 180.44 241.791C180.663 241.909 180.885 242.028 181.108 242.146C182.835 243.068 184.955 243.373 186.936 243.638C188.387 243.833 189.855 243.338 189.855 241.432C189.873 237.366 191.929 234.061 194.065 230.928C197.44 225.97 201.033 221.15 204.765 216.456C210.725 208.97 216.83 201.598 222.974 194.262C224.812 192.068 226.75 189.96 228.689 187.851C229.757 186.689 230.826 185.527 231.877 184.351C233.866 182.122 235.851 179.891 237.836 177.659C240.944 174.166 244.052 170.672 247.173 167.19C247.335 167.009 247.597 166.917 247.924 166.802C248.097 166.742 248.288 166.675 248.492 166.585C248.342 166.992 248.198 167.386 248.058 167.769C247.509 169.266 247.021 170.601 246.539 171.935C246.258 172.716 245.968 173.493 245.679 174.27C244.968 176.181 244.257 178.089 243.671 180.037C242.779 183.032 241.967 186.067 241.42 189.142C241.247 190.109 241.059 191.08 240.87 192.052C240.175 195.628 239.475 199.228 239.565 202.796C239.755 210.294 243.879 215.69 250.57 219.065C251.878 219.725 253.184 220.391 254.489 221.056C258.283 222.99 262.076 224.923 265.924 226.736C266.938 227.214 267.95 227.702 268.963 228.19C273.063 230.165 277.173 232.146 281.472 233.508C287.376 235.381 293.398 236.894 299.348 238.389Z" fill="white"/>
<path d="M189.52 445.243C190.558 445.037 191.647 445.071 192.674 444.842C197.908 443.678 202.465 441.471 204.323 435.99C204.822 434.517 204.988 432.447 204.323 431.146C202.024 426.628 197.839 424.524 193.035 423.475C189.297 422.661 185.909 422.856 183.363 426.267C180.915 429.552 180.153 433.272 180.193 437.085C179.952 442.933 183.954 446.344 189.515 445.237L189.52 445.243Z" fill="white"/>
<path d="M307.619 496.506C304.804 495.996 304.334 495.452 305.652 492.998C307.894 488.784 310.29 484.616 312.991 480.695C316.677 475.329 320.805 470.267 324.56 464.947C325.592 463.473 326.377 461.581 326.589 459.798C327.782 449.84 316.872 442.416 309.671 444.016C304.007 445.277 298.492 447.26 292.954 449.066C291.068 449.686 289.44 450.006 287.789 448.556C286.567 447.478 285.226 446.538 283.896 445.581C279.929 442.72 274.849 443.116 271.255 446.246C267.649 449.382 267.236 456.554 269.38 461.564C269.862 462.688 270.561 464.213 270.165 465.124C269.093 467.647 267.7 470.095 266.055 472.291C262.197 477.433 258.333 482.593 254.079 487.403C248.988 493.17 243.662 498.725 235.47 500.198C232.11 500.812 230.201 499.923 230.528 496.512C230.901 492.648 231.428 488.647 232.815 485.064C236.869 474.601 241.3 464.287 245.749 453.98C247.973 448.831 250.599 443.861 252.944 438.764C253.718 437.067 254.864 436.242 256.676 436.104C260.477 435.812 264.272 435.514 268.067 435.141C274.746 434.499 281.419 433.845 288.092 433.123C296.606 432.206 305.108 431.202 313.621 430.257C322.765 429.236 331.932 428.388 341.042 427.155C345.984 426.496 351.092 426.576 355.764 424.357C358.757 422.936 361.904 421.818 364.839 420.287C365.728 419.823 366.691 418.349 366.582 417.449C366.473 416.52 365.235 415.54 364.266 414.961C363.504 414.508 362.368 414.434 361.445 414.537C357.553 414.99 353.677 415.609 349.79 416.108C346.809 416.492 343.817 417.019 340.824 417.076C325.941 417.346 311.053 417.472 296.164 417.661C284.63 417.805 273.101 417.977 261.56 418.108C260.741 418.12 259.921 417.936 258.705 417.799C259.542 416.692 260.362 416.073 260.54 415.311C261.371 411.567 262.151 407.812 262.713 404.028C263.005 402.096 261.944 401.013 259.904 400.428C253.867 398.702 247.784 398.702 241.696 399.643C240.354 399.843 238.663 401.07 238.072 402.291C236.479 405.576 235.47 409.148 234.071 412.536C232.018 417.512 231.697 417.581 226.452 416.973C215.84 415.741 205.217 414.554 194.588 413.396C193.304 413.258 191.939 413.201 190.69 413.453C187.961 413.998 187.238 416.165 188.912 418.378C190.999 421.124 194.33 421.56 197.242 422.093C206.283 423.761 215.41 424.959 224.514 426.249C227.621 426.691 228.114 427.035 227.266 430.182C226.194 434.149 224.847 438.059 223.545 441.963C221.619 447.759 219.67 453.549 217.646 459.305C215.037 466.712 211.747 473.844 206.673 479.869C202.11 485.281 197.076 490.292 192.134 495.366C190.518 497.028 188.677 498.587 186.671 499.746C184.12 501.219 183.145 500.525 183.667 497.624C184.2 494.678 185.169 491.811 186.04 488.928C187.519 484.032 189.084 479.164 190.615 474.28C192.169 469.321 193.877 464.402 195.247 459.391C195.998 456.64 194.8 454.444 192.553 452.541C188.551 449.164 183.827 447.455 178.926 446.246C177.911 445.999 175.715 447.226 175.365 448.229C173.376 453.962 171.823 459.85 170.028 465.652C168.354 471.069 166.571 476.453 164.794 481.836C162.667 488.308 161.274 494.62 164.823 501.23C169.81 510.529 180.623 513.636 189.847 509.784C195.333 507.497 199.375 503.329 203.101 498.828C203.944 497.808 204.907 496.879 206.083 495.635C208.37 500.548 211.489 503.982 215.748 506.505C220.862 509.52 226.291 511.762 232.19 511.418C238.342 511.062 244.201 509.492 249.647 505.972C257.289 501.041 263.67 494.832 269.449 488.022C273.267 483.521 276.248 478.293 279.482 473.317C280.399 471.906 281.379 471.144 283.065 471.454C287.955 472.348 292.363 470.92 296.606 468.662C297.271 468.306 298.01 468.1 298.716 467.825C298.738 468.891 298.435 469.602 298.005 470.221C296.606 472.233 295.098 474.165 293.751 476.2C289.698 482.306 286.418 488.784 285.53 496.151C284.905 501.356 287.055 508.528 293.923 508.907C298.337 509.153 302.786 509.027 307.206 508.769C308.874 508.666 309.499 508.976 309.941 510.598C310.967 514.399 309.872 517.925 308.771 521.399C305.693 531.088 301.714 540.363 292.518 545.867C287.611 548.802 282.417 551.543 276.999 553.245C272.677 554.598 267.821 554.57 263.2 554.57C255.225 554.564 247.245 553.956 239.271 553.865C227.896 553.733 216.906 551.726 206.335 547.604C204.879 547.037 203.348 545.506 202.826 544.061C202.316 542.68 206.576 539.618 208.232 539.744C214.327 540.209 220.409 540.834 226.509 541.029C234.696 541.286 242.865 540.822 250.679 538.099C254.268 536.849 258.132 535.427 258.384 530.635C258.551 527.648 257.742 524.919 256.057 522.322C253.253 518.005 250.18 514.044 245.176 512.226C244.109 511.842 242.687 512.444 241.426 512.599C241.856 513.625 242.045 514.875 242.751 515.637C245.617 518.756 244.728 520.327 241.266 521.324C232.844 523.761 224.227 524.191 215.565 523.509C208.187 522.93 200.82 522.179 193.476 521.279C188.546 520.671 183.615 519.885 178.765 518.808C172.149 517.334 165.545 515.809 159.485 512.501C155.816 510.501 152.044 508.718 149.705 505.106C147.836 502.217 146.603 499.023 147.561 495.469C148.575 491.668 149.464 487.815 150.794 484.123C152.657 478.941 154.601 473.752 156.997 468.805C160.878 460.825 165.224 453.068 169.237 445.145C170.63 442.405 170.584 439.481 168.406 437.119C166.405 434.94 164.393 432.447 161.841 431.157C157.622 429.035 153.07 427.161 148.455 426.33C144.545 425.624 141.369 428.886 138.417 431.151C134.1 434.465 129.943 438.099 126.234 442.078C117.096 451.887 108.164 461.885 99.3352 471.975C94.3418 477.679 89.6866 483.676 84.9397 489.581C83.0765 491.891 81.3566 494.317 79.5565 496.69C77.6531 499.184 75.7441 501.672 73.8407 504.16C73.6516 504.051 73.4566 503.942 73.2674 503.833C73.6859 502.916 74.0299 501.964 74.5287 501.093C78.6277 493.955 82.6809 486.778 86.9176 479.715C90.0191 474.538 93.3213 469.481 96.6005 464.425C103.87 453.217 111.523 442.25 118.363 430.79C122.8 423.365 126.819 415.511 129.657 407.371C133.435 396.558 131.417 391.467 122.227 385.012C115.462 380.26 107.917 376.751 99.9027 374.303C93.2869 372.279 86.6711 370.892 79.7227 371.007C71.8399 371.138 64.2438 372.451 56.6935 374.802C47.7902 377.582 39.5233 381.549 31.9386 386.812C26.9968 390.235 22.3073 394.11 17.9904 398.284C14.0862 402.056 10.2968 406.172 7.44175 410.759C4.09371 416.142 0.81446 421.703 0.183836 428.433C-0.234669 432.905 -0.125743 437.199 2.54008 440.731C9.48841 449.949 19.137 453.785 30.4997 453.681C31.1246 453.676 31.9214 453.532 32.3342 453.131C32.9706 452.512 33.7617 451.595 33.7101 450.855C33.6528 450.098 32.7928 449.141 32.0418 448.768C30.9698 448.241 29.6913 448.052 28.4817 447.92C25.0362 447.559 22.6513 443.89 23.3965 440.765C24.2393 437.216 24.9788 433.455 26.7732 430.371C29.7142 425.303 33.4579 420.7 36.8976 415.924C42.3153 408.397 49.6018 402.83 57.0145 397.533C61.4862 394.334 66.451 391.748 71.3756 389.237C80.6285 384.513 90.4777 382.186 100.912 382.988C105.28 383.321 108.932 385.866 107.533 390.877C107.012 392.763 106.668 394.752 105.796 396.461C102.064 403.759 98.4293 411.12 94.2672 418.166C86.459 431.369 78.301 444.354 70.3264 457.459C63.4412 468.77 56.3667 479.967 49.8369 491.479C45.3021 499.493 41.2891 507.841 37.5512 516.268C35.5332 520.814 35.43 525.59 38.4513 530.291C41.891 535.634 47.1768 538.26 52.388 541.04C54.4003 542.112 56.8655 542.467 59.1816 542.777C60.8728 543.006 62.5755 542.433 62.5812 540.209C62.5984 535.462 65.0005 531.615 67.4886 527.963C71.4214 522.179 75.6122 516.56 79.9635 511.091C86.9118 502.366 94.0322 493.772 101.198 485.218C104.523 481.251 108.129 477.525 111.581 473.661C117.526 466.993 123.448 460.303 129.41 453.653C129.703 453.332 130.259 453.251 130.947 452.948C130.098 455.281 129.376 457.23 128.671 459.185C127.535 462.327 126.28 465.434 125.323 468.627C124.285 472.118 123.333 475.656 122.697 479.245C121.757 484.525 120.404 489.873 120.536 495.165C120.753 503.902 125.563 510.191 133.366 514.13C139.322 517.134 145.233 520.229 151.264 523.067C157.232 525.876 163.143 528.984 169.392 530.961C179.132 534.046 189.136 536.299 198.802 538.839C197.798 539.739 196.279 540.725 195.247 542.078C188.368 551.101 191.767 559.082 200.602 563.072C205.939 565.485 211.5 567.308 217.336 568.22C221.43 568.856 225.466 570.02 229.571 570.375C235.263 570.868 241.019 571.121 246.729 570.943C255.535 570.668 264.347 570.077 273.135 569.349C277.297 569.005 281.517 568.375 285.513 567.211C290.804 565.675 295.924 563.53 301.089 561.564C303.182 560.773 305.354 559.987 307.206 558.766C309.287 557.402 311.018 555.504 312.945 553.888C317.737 549.869 322.352 545.982 324.227 539.389C325.993 533.209 327.977 527.166 328.452 520.694C328.894 514.646 326.675 509.572 323.155 504.899C319.262 499.728 313.713 497.596 307.607 496.495L307.619 496.506Z" fill="white"/>
<path d="M396.881 459.38C395.986 459.489 394.754 460.463 394.456 461.306C392.443 467.062 390.735 472.927 388.751 478.694C386.957 483.911 385.071 489.111 382.944 494.202C382.107 496.197 380.496 497.865 379.235 499.682C378.931 499.585 378.633 499.487 378.329 499.39C378.553 496.862 378.587 494.299 379.028 491.811C380.014 486.302 381.161 480.815 382.331 475.34C382.875 472.789 382.147 470.697 380.077 469.321C376.483 466.924 372.791 464.648 368.296 464.27C365.252 464.018 365.155 464.304 364.782 467.274C364.186 472.044 363.44 476.814 362.345 481.486C361.503 485.092 360.155 488.595 358.803 492.052C357.386 495.658 355.443 498.977 351.998 501.081C350.708 501.872 348.156 501.265 347.973 500.066C347.503 496.959 346.568 493.708 347.038 490.71C348.059 484.226 349.395 477.708 351.482 471.499C352.84 467.463 355.42 463.702 358.04 460.268C361.314 455.974 367.947 454.403 370.968 461.77C371.461 462.974 373.364 463.886 374.803 464.356C377.377 465.199 379.005 463.96 378.553 461.323C378.151 458.99 376.942 456.783 376.03 454.547C374.396 450.539 371.26 447.61 367.597 445.965C358.78 441.997 350.237 444.136 342.676 449.324C336.754 453.389 332.689 459.345 330 466.053C326.102 475.793 324.359 485.579 329.289 495.629C332.437 502.044 336.53 507.502 343.301 510.202C348.735 512.369 354.875 512.558 359.387 506.665C360.178 505.627 361.164 504.739 361.956 503.707C362.896 502.486 363.521 502.933 364.53 503.747C367.459 506.109 370.366 508.58 373.599 510.455C376.299 512.02 379.567 512.123 382.239 510.196C386.934 506.808 389.686 501.781 392.22 496.781C394.192 492.894 395.539 488.681 396.99 484.547C399.111 478.493 401.244 472.434 403.032 466.276C404.288 461.954 401.398 458.835 396.898 459.385L396.881 459.38Z" fill="white"/>
<path d="M416.745 439.859C416.682 439.292 416.659 438.718 416.665 438.151C416.797 429.23 416.849 420.304 417.095 411.384C417.324 403.151 412.618 397.733 406.868 392.878C406.225 392.333 405.251 392.104 404.391 391.903C402.189 391.387 401.232 392.379 401.37 394.655C401.633 398.966 402.052 403.294 401.909 407.6C401.691 414.112 401.054 420.614 400.596 427.121C400.642 427.121 400.687 427.126 400.739 427.132C400.865 428.594 401.014 430.062 401.117 431.523C401.496 436.987 407.125 443.075 412.566 443.884C416.258 444.434 417.164 443.563 416.751 439.853L416.745 439.859Z" fill="white"/>
<path d="M492.575 436.121C491.818 435.995 490.987 436.391 490.179 436.442C488.321 436.563 486.458 436.626 484.595 436.677C483.5 436.706 482.296 436.379 481.327 436.723C478.81 437.612 476.311 438.615 473.96 439.876C467.946 443.093 461.995 446.423 456.073 449.806C453.832 451.09 451.779 452.707 449.543 454.008C449.085 454.277 447.623 453.836 447.617 453.71C447.588 451.331 447.118 448.722 447.932 446.63C449.457 442.703 452.484 439.681 455.706 436.947C456.784 436.029 457.518 436.093 458.607 437.084C460.717 438.999 464.782 438.145 465.578 435.433C466.438 432.521 466.886 429.402 466.943 426.364C466.994 423.566 465.395 421.938 462.546 421.68C455.213 421.021 448.087 421.818 441.454 425.424C436.621 428.055 432.677 431.604 431.106 436.93C430.206 439.968 430.126 443.339 430.183 446.555C430.292 452.942 433.285 457.826 438.903 461.438C435.612 463.96 432.453 466.546 429.134 468.902C420.196 475.243 414.326 483.504 412.841 494.529C412.577 496.472 412.268 498.759 413.019 500.422C414.538 503.787 416.585 506.963 418.775 509.95C419.87 511.446 421.59 512.822 423.321 513.453C429.541 515.712 435.991 516.451 442.629 515.626C450.925 514.594 457.082 510.38 461.353 503.346C463.515 499.786 464.541 495.853 465.464 491.731C466.811 485.717 465.085 480.724 462.167 475.948C459.421 471.448 456.153 467.257 452.863 462.573C454.359 461.306 456.125 459.684 458.028 458.239C460.161 456.628 462.402 455.166 464.615 453.664C471.575 448.946 478.793 444.715 486.704 441.74C488.906 440.914 491.021 439.83 493.125 438.758C493.618 438.506 493.882 437.807 494.255 437.308C493.699 436.895 493.188 436.236 492.581 436.138L492.575 436.121ZM439.505 500.175C438.152 501.454 436.96 503.076 435.354 503.862C431.966 505.513 427.666 505.306 427.024 501.655C426.554 498.989 426.474 496.013 427.162 493.428C429.209 485.671 434.116 479.554 439.471 473.792C440.525 472.657 441.626 471.568 442.664 470.421C443.954 468.994 445.267 469.12 445.897 470.806C447.055 473.89 447.887 477.095 448.483 479.038C447.915 488.153 445.181 494.827 439.505 500.187V500.175Z" fill="white"/>
<path d="M67.8125 599.312V594.188H72.2812V599.312H67.8125ZM71.9688 642.406C71.9688 643.698 71.7188 644.906 71.2188 646.031C70.7396 647.177 70.0729 648.177 69.2188 649.031C68.3646 649.885 67.3646 650.562 66.2188 651.062C65.0729 651.562 63.8542 651.812 62.5625 651.812V648.156C63.3333 648.156 64.0521 648.01 64.7188 647.719C65.4062 647.427 66 647.031 66.5 646.531C67 646.031 67.3958 645.438 67.6875 644.75C67.9792 644.083 68.125 643.365 68.125 642.594V607H71.9688V642.406ZM102.344 630.219C102.344 631.51 102.094 632.729 101.594 633.875C101.115 635.021 100.448 636.021 99.5938 636.875C98.7396 637.729 97.7396 638.406 96.5938 638.906C95.4479 639.385 94.2292 639.625 92.9375 639.625H90.375C89.0833 639.625 87.8646 639.385 86.7188 638.906C85.5729 638.406 84.5729 637.729 83.7188 636.875C82.8646 636.021 82.1875 635.021 81.6875 633.875C81.2083 632.729 80.9688 631.51 80.9688 630.219V615.781C80.9688 614.49 81.2083 613.271 81.6875 612.125C82.1875 610.979 82.8646 609.979 83.7188 609.125C84.5729 608.271 85.5729 607.604 86.7188 607.125C87.8646 606.625 89.0833 606.375 90.375 606.375H92.9375C94.2292 606.375 95.4479 606.625 96.5938 607.125C97.7396 607.604 98.7396 608.271 99.5938 609.125C100.448 609.979 101.115 610.979 101.594 612.125C102.094 613.271 102.344 614.49 102.344 615.781V623.312H84.8125V630.438C84.8125 631.208 84.9583 631.938 85.25 632.625C85.5417 633.292 85.9375 633.875 86.4375 634.375C86.9375 634.875 87.5208 635.271 88.1875 635.562C88.875 635.854 89.6042 636 90.375 636H92.9375C93.7083 636 94.4271 635.854 95.0938 635.562C95.7812 635.271 96.375 634.875 96.875 634.375C97.375 633.875 97.7708 633.292 98.0625 632.625C98.3542 631.938 98.5 631.208 98.5 630.438V628.312L102.344 628.938V630.219ZM98.5 615.562C98.5 614.792 98.3542 614.073 98.0625 613.406C97.7708 612.719 97.375 612.125 96.875 611.625C96.375 611.125 95.7812 610.729 95.0938 610.438C94.4271 610.146 93.7083 610 92.9375 610H90.375C89.6042 610 88.875 610.146 88.1875 610.438C87.5208 610.729 86.9375 611.125 86.4375 611.625C85.9375 612.125 85.5417 612.719 85.25 613.406C84.9583 614.073 84.8125 614.792 84.8125 615.562V620.312H98.5V615.562ZM136.969 639H134.875L127.375 614.875L127.25 613.219L127.125 614.875L119.625 639H117.5L106.812 607H110.719L118.344 631.188L118.469 632.844L118.594 631.188L126.094 607H128.406L135.875 631.188L136 632.844L136.125 631.188L143.75 607H147.656L136.969 639ZM173.531 630.219C173.531 631.51 173.281 632.729 172.781 633.875C172.302 635.021 171.635 636.021 170.781 636.875C169.927 637.729 168.927 638.406 167.781 638.906C166.635 639.385 165.417 639.625 164.125 639.625H161.562C160.271 639.625 159.052 639.385 157.906 638.906C156.76 638.406 155.76 637.729 154.906 636.875C154.052 636.021 153.375 635.021 152.875 633.875C152.396 632.729 152.156 631.51 152.156 630.219V615.781C152.156 614.49 152.396 613.271 152.875 612.125C153.375 610.979 154.052 609.979 154.906 609.125C155.76 608.271 156.76 607.604 157.906 607.125C159.052 606.625 160.271 606.375 161.562 606.375H164.125C165.417 606.375 166.635 606.625 167.781 607.125C168.927 607.604 169.927 608.271 170.781 609.125C171.635 609.979 172.302 610.979 172.781 612.125C173.281 613.271 173.531 614.49 173.531 615.781V623.312H156V630.438C156 631.208 156.146 631.938 156.438 632.625C156.729 633.292 157.125 633.875 157.625 634.375C158.125 634.875 158.708 635.271 159.375 635.562C160.062 635.854 160.792 636 161.562 636H164.125C164.896 636 165.615 635.854 166.281 635.562C166.969 635.271 167.562 634.875 168.062 634.375C168.562 633.875 168.958 633.292 169.25 632.625C169.542 631.938 169.688 631.208 169.688 630.438V628.312L173.531 628.938V630.219ZM169.688 615.562C169.688 614.792 169.542 614.073 169.25 613.406C168.958 612.719 168.562 612.125 168.062 611.625C167.562 611.125 166.969 610.729 166.281 610.438C165.615 610.146 164.896 610 164.125 610H161.562C160.792 610 160.062 610.146 159.375 610.438C158.708 610.729 158.125 611.125 157.625 611.625C157.125 612.125 156.729 612.719 156.438 613.406C156.146 614.073 156 614.792 156 615.562V620.312H169.688V615.562ZM182.5 639V594.188H186.344V639H182.5ZM204.75 610.656C203.979 610.656 203.25 610.802 202.562 611.094C201.896 611.385 201.312 611.781 200.812 612.281C200.312 612.781 199.917 613.375 199.625 614.062C199.333 614.729 199.188 615.448 199.188 616.219V639H195.344V607H196.625L198.719 610.25C199.594 609.062 200.688 608.125 202 607.438C203.333 606.729 204.781 606.375 206.344 606.375H208.594V610.656H204.75ZM218.906 651.812H215.188L220.875 636.25L210.5 607H214.344L222.688 631.25L222.812 632.906L222.938 631.25L231.25 607H235.094L218.906 651.812ZM284 639.625C282.188 639.625 280.604 639.24 279.25 638.469C277.917 637.698 276.854 636.656 276.062 635.344C275.021 636.656 273.74 637.698 272.219 638.469C270.698 639.24 269.052 639.625 267.281 639.625H265.375C263.854 639.625 262.417 639.344 261.062 638.781C259.729 638.198 258.562 637.406 257.562 636.406C256.562 635.406 255.771 634.24 255.188 632.906C254.625 631.573 254.344 630.146 254.344 628.625V626.188C254.344 625.125 254.479 624.115 254.75 623.156C255.042 622.177 255.448 621.271 255.969 620.438C256.49 619.604 257.104 618.854 257.812 618.188C258.521 617.5 259.312 616.927 260.188 616.469C259.312 616.01 258.521 615.448 257.812 614.781C257.104 614.094 256.49 613.333 255.969 612.5C255.448 611.667 255.042 610.771 254.75 609.812C254.479 608.833 254.344 607.812 254.344 606.75V604.562C254.344 603.042 254.625 601.615 255.188 600.281C255.771 598.948 256.562 597.781 257.562 596.781C258.562 595.781 259.729 595 261.062 594.438C262.417 593.854 263.854 593.562 265.375 593.562H267.281C268.802 593.562 270.229 593.854 271.562 594.438C272.896 595 274.062 595.781 275.062 596.781C276.062 597.781 276.844 598.948 277.406 600.281C277.99 601.615 278.281 603.042 278.281 604.562V604.875L274.25 605.531V604.562C274.25 603.562 274.062 602.635 273.688 601.781C273.312 600.906 272.802 600.146 272.156 599.5C271.51 598.854 270.75 598.344 269.875 597.969C269.021 597.594 268.094 597.406 267.094 597.406H265.562C264.562 597.406 263.625 597.594 262.75 597.969C261.896 598.344 261.135 598.854 260.469 599.5C259.823 600.146 259.312 600.906 258.938 601.781C258.562 602.635 258.375 603.562 258.375 604.562V607.375C258.375 608.375 258.562 609.312 258.938 610.188C259.312 611.042 259.823 611.802 260.469 612.469C261.135 613.115 261.896 613.625 262.75 614C263.625 614.375 264.562 614.562 265.562 614.562H274.25V610.469L278.281 609.812V614.5H284.5V618.312H278.281V629.094C278.323 630.031 278.469 630.906 278.719 631.719C278.969 632.531 279.333 633.25 279.812 633.875C280.312 634.479 280.927 634.958 281.656 635.312C282.385 635.646 283.229 635.812 284.188 635.812H285.125L284.562 639.625H284ZM267.094 635.812C268.052 635.812 268.958 635.635 269.812 635.281C270.667 634.927 271.406 634.438 272.031 633.812C272.677 633.188 273.198 632.458 273.594 631.625C273.99 630.792 274.208 629.896 274.25 628.938V618.406H265.562C264.562 618.406 263.625 618.594 262.75 618.969C261.896 619.344 261.135 619.854 260.469 620.5C259.823 621.146 259.312 621.906 258.938 622.781C258.562 623.635 258.375 624.562 258.375 625.562V628.625C258.375 629.625 258.562 630.562 258.938 631.438C259.312 632.292 259.823 633.052 260.469 633.719C261.135 634.365 261.896 634.875 262.75 635.25C263.625 635.625 264.562 635.812 265.562 635.812H267.094ZM342 639V615.562C342 614.792 341.854 614.073 341.562 613.406C341.271 612.719 340.875 612.125 340.375 611.625C339.875 611.125 339.281 610.729 338.594 610.438C337.927 610.146 337.208 610 336.438 610H334.531C333.76 610 333.031 610.146 332.344 610.438C331.677 610.729 331.083 611.125 330.562 611.625C330.062 612.125 329.667 612.719 329.375 613.406C329.083 614.073 328.938 614.792 328.938 615.562V639H325.125V615.562C325.125 614.792 324.979 614.073 324.688 613.406C324.396 612.719 323.99 612.125 323.469 611.625C322.969 611.125 322.375 610.729 321.688 610.438C321.021 610.146 320.302 610 319.531 610H317.625C316.854 610 316.125 610.146 315.438 610.438C314.771 610.729 314.188 611.125 313.688 611.625C313.188 612.125 312.792 612.719 312.5 613.406C312.208 614.073 312.062 614.792 312.062 615.562V639H308.219V607H309.5L311.594 610.25C312.469 609.062 313.562 608.125 314.875 607.438C316.208 606.729 317.656 606.375 319.219 606.375H319.531C321.344 606.375 322.979 606.823 324.438 607.719C325.896 608.615 327.021 609.802 327.812 611.281C328.208 610.552 328.698 609.885 329.281 609.281C329.865 608.677 330.51 608.167 331.219 607.75C331.927 607.312 332.698 606.979 333.531 606.75C334.365 606.5 335.229 606.375 336.125 606.375H336.438C337.729 606.375 338.948 606.625 340.094 607.125C341.24 607.604 342.24 608.271 343.094 609.125C343.948 609.979 344.615 610.979 345.094 612.125C345.594 613.271 345.844 614.49 345.844 615.781V639H342ZM374.906 630.219C374.906 631.51 374.656 632.729 374.156 633.875C373.677 635.021 373.01 636.021 372.156 636.875C371.302 637.729 370.302 638.406 369.156 638.906C368.01 639.385 366.792 639.625 365.5 639.625H362.938C361.646 639.625 360.427 639.385 359.281 638.906C358.135 638.406 357.135 637.729 356.281 636.875C355.427 636.021 354.75 635.021 354.25 633.875C353.771 632.729 353.531 631.51 353.531 630.219V615.781C353.531 614.49 353.771 613.271 354.25 612.125C354.75 610.979 355.427 609.979 356.281 609.125C357.135 608.271 358.135 607.604 359.281 607.125C360.427 606.625 361.646 606.375 362.938 606.375H365.5C366.792 606.375 368.01 606.625 369.156 607.125C370.302 607.604 371.302 608.271 372.156 609.125C373.01 609.979 373.677 610.979 374.156 612.125C374.656 613.271 374.906 614.49 374.906 615.781V630.219ZM371.062 615.562C371.062 614.792 370.917 614.073 370.625 613.406C370.333 612.719 369.938 612.125 369.438 611.625C368.938 611.125 368.344 610.729 367.656 610.438C366.99 610.146 366.271 610 365.5 610H362.938C362.167 610 361.438 610.146 360.75 610.438C360.083 610.729 359.5 611.125 359 611.625C358.5 612.125 358.104 612.719 357.812 613.406C357.521 614.073 357.375 614.792 357.375 615.562V630.438C357.375 631.208 357.521 631.938 357.812 632.625C358.104 633.292 358.5 633.875 359 634.375C359.5 634.875 360.083 635.271 360.75 635.562C361.438 635.854 362.167 636 362.938 636H365.5C366.271 636 366.99 635.854 367.656 635.562C368.344 635.271 368.938 634.875 369.438 634.375C369.938 633.875 370.333 633.292 370.625 632.625C370.917 631.938 371.062 631.208 371.062 630.438V615.562ZM392 610.656C391.229 610.656 390.5 610.802 389.812 611.094C389.146 611.385 388.562 611.781 388.062 612.281C387.562 612.781 387.167 613.375 386.875 614.062C386.583 614.729 386.438 615.448 386.438 616.219V639H382.594V607H383.875L385.969 610.25C386.844 609.062 387.938 608.125 389.25 607.438C390.583 606.729 392.031 606.375 393.594 606.375H395.844V610.656H392ZM422.344 630.219C422.344 631.51 422.094 632.729 421.594 633.875C421.115 635.021 420.448 636.021 419.594 636.875C418.74 637.729 417.74 638.406 416.594 638.906C415.448 639.385 414.229 639.625 412.938 639.625H410.375C409.083 639.625 407.865 639.385 406.719 638.906C405.573 638.406 404.573 637.729 403.719 636.875C402.865 636.021 402.188 635.021 401.688 633.875C401.208 632.729 400.969 631.51 400.969 630.219V615.781C400.969 614.49 401.208 613.271 401.688 612.125C402.188 610.979 402.865 609.979 403.719 609.125C404.573 608.271 405.573 607.604 406.719 607.125C407.865 606.625 409.083 606.375 410.375 606.375H412.938C414.229 606.375 415.448 606.625 416.594 607.125C417.74 607.604 418.74 608.271 419.594 609.125C420.448 609.979 421.115 610.979 421.594 612.125C422.094 613.271 422.344 614.49 422.344 615.781V623.312H404.812V630.438C404.812 631.208 404.958 631.938 405.25 632.625C405.542 633.292 405.938 633.875 406.438 634.375C406.938 634.875 407.521 635.271 408.188 635.562C408.875 635.854 409.604 636 410.375 636H412.938C413.708 636 414.427 635.854 415.094 635.562C415.781 635.271 416.375 634.875 416.875 634.375C417.375 633.875 417.771 633.292 418.062 632.625C418.354 631.938 418.5 631.208 418.5 630.438V628.312L422.344 628.938V630.219ZM418.5 615.562C418.5 614.792 418.354 614.073 418.062 613.406C417.771 612.719 417.375 612.125 416.875 611.625C416.375 611.125 415.781 610.729 415.094 610.438C414.427 610.146 413.708 610 412.938 610H410.375C409.604 610 408.875 610.146 408.188 610.438C407.521 610.729 406.938 611.125 406.438 611.625C405.938 612.125 405.542 612.719 405.25 613.406C404.958 614.073 404.812 614.792 404.812 615.562V620.312H418.5V615.562Z" fill="white"/>
</svg>
