<svg width="152" height="200" viewBox="0 0 152 200" fill="none" xmlns="http://www.w3.org/2000/svg">
<path fill-rule="evenodd" clip-rule="evenodd" d="M128.123 52.1622C128.123 80.9706 104.769 104.324 75.961 104.324C47.1526 104.324 23.7988 80.9706 23.7988 52.1622C23.7988 23.3538 47.1526 0 75.961 0C104.769 0 128.123 23.3538 128.123 52.1622ZM92.0234 73.1461C92.78 73.3362 93.5329 73.5254 94.2778 73.7211L94.2743 73.7193C95.5589 73.8819 96.7534 73.9596 96.7534 73.9596C97.1902 73.9928 97.627 74.0292 98.0639 74.0656C99.2299 74.1627 100.396 74.2598 101.563 74.2971C103.717 74.366 105.868 74.2423 107.924 73.5267C108.87 73.198 109.886 72.8234 109.953 71.5618C109.997 70.7754 109.785 70.058 109.342 69.3742C108.603 68.238 107.794 67.1954 106.477 66.7184C106.285 66.6478 106.048 66.7011 105.81 66.7545C105.703 66.7787 105.595 66.8029 105.491 66.8156C105.527 66.9012 105.557 66.9925 105.586 67.0837C105.649 67.2804 105.713 67.4766 105.839 67.6142C106.594 68.4341 106.361 68.8476 105.449 69.1109C103.231 69.7541 100.964 69.8654 98.6848 69.6869C96.7428 69.535 94.8044 69.3371 92.8713 69.1003C91.5725 68.9413 90.2773 68.7328 88.9998 68.45C87.2592 68.0631 85.5223 67.662 83.9267 66.7908C83.8312 66.7386 83.7356 66.6869 83.64 66.6353C82.7691 66.1652 81.908 65.7002 81.3539 64.8436C80.8609 64.082 80.5375 63.2426 80.7902 62.3061C80.8505 62.0802 80.909 61.8536 80.9676 61.627C81.1683 60.85 81.3693 60.0722 81.6401 59.3199C82.1296 57.9558 82.6403 56.5916 83.2729 55.2893C83.8683 54.0645 84.5051 52.8601 85.1421 51.6555C85.5977 50.7938 86.0535 49.9319 86.4941 49.0624C86.8599 48.3414 86.8493 47.5728 86.275 46.9508C86.1969 46.8659 86.1188 46.7792 86.0402 46.6919C85.5873 46.1891 85.1191 45.6693 84.5469 45.3817C83.4354 44.8233 82.2392 44.3303 81.0235 44.1112C80.1494 43.9538 79.4153 44.5481 78.739 45.0956C78.6183 45.1934 78.4993 45.2896 78.3818 45.3799C77.2456 46.251 76.1518 47.2088 75.1746 48.2548C72.7697 50.8364 70.4196 53.4693 68.096 56.1233C67.0986 57.2615 66.1542 58.4453 65.2101 59.6287C64.9098 60.0052 64.6095 60.3816 64.3075 60.7565C63.9787 61.1648 63.6659 61.5866 63.3529 62.0087C63.2 62.2149 63.047 62.4212 62.8921 62.626C62.6119 62.9944 62.3305 63.3616 62.0493 63.7287C61.8287 64.0167 61.6082 64.3045 61.3884 64.5926C61.3684 64.5812 61.3481 64.5695 61.3277 64.5577C61.2978 64.5404 61.2677 64.5229 61.2382 64.5061C61.2717 64.432 61.3036 64.3572 61.3354 64.2824C61.4076 64.1127 61.4796 63.9434 61.5704 63.7851C61.8216 63.3482 62.072 62.9106 62.3224 62.473C63.1485 61.0295 63.9749 59.5854 64.8305 58.159C65.5716 56.9195 66.358 55.7079 67.1445 54.4962C67.2226 54.3759 67.3006 54.2557 67.3786 54.1355C67.991 53.1916 68.6138 52.2541 69.2365 51.3166C70.5596 49.325 71.8823 47.3336 73.1055 45.2827C74.2735 43.3302 75.3319 41.261 76.0793 39.1194C77.0742 36.2745 76.5423 34.9351 74.125 33.2352C72.3439 31.9859 70.3595 31.0618 68.2497 30.4168C66.5074 29.885 64.7669 29.5192 62.9381 29.5492C60.8636 29.5846 58.8633 29.9291 56.8772 30.5476C54.5342 31.2791 52.359 32.3234 50.3622 33.7088C49.0617 34.6099 47.8266 35.6295 46.6904 36.7286C45.662 37.7217 44.6654 38.8049 43.9144 40.0117C43.0344 41.4271 42.1704 42.892 42.0043 44.6625C41.8947 45.8411 41.923 46.9702 42.6245 47.8997C44.4533 50.3258 46.9925 51.3347 49.9841 51.3082C50.1484 51.3065 50.3587 51.2676 50.4665 51.1633C50.6344 51.0008 50.8429 50.7587 50.8287 50.5643C50.8128 50.3647 50.5866 50.112 50.3887 50.0148C50.1078 49.8752 49.7703 49.8257 49.4522 49.7904C48.5457 49.6967 47.9185 48.7284 48.1146 47.9067C48.1402 47.7993 48.1655 47.6911 48.1909 47.5825C48.3857 46.7482 48.5859 45.8906 49.0034 45.1714C49.5654 44.2026 50.2393 43.298 50.9127 42.3942C51.1665 42.0534 51.4203 41.7128 51.6681 41.3688C53.094 39.388 55.0112 37.9231 56.962 36.529C58.1406 35.6861 59.4464 35.0058 60.7417 34.3449C63.1766 33.1009 65.7688 32.4895 68.5148 32.6998C69.6633 32.7882 70.6246 33.4579 70.257 34.776C70.2214 34.9038 70.189 35.0336 70.1566 35.1635C70.0634 35.5368 69.9698 35.9115 69.7994 36.2444C69.6521 36.5328 69.5054 36.8216 69.3587 37.1104C68.528 38.7453 67.6965 40.3819 66.7654 41.9572C65.4193 44.234 64.0337 46.4857 62.6479 48.7378C61.9182 49.9237 61.1884 51.1097 60.4642 52.2995C60.003 53.0566 59.5386 53.8118 59.0741 54.567C57.713 56.7803 56.3519 58.9935 55.0713 61.253C53.8768 63.3628 52.8201 65.5592 51.8377 67.7786C51.3076 68.9766 51.2793 70.233 52.0745 71.4699C52.9358 72.8064 54.2344 73.4968 55.538 74.1899C55.6063 74.2262 55.6745 74.2625 55.7428 74.2989C56.2729 74.5816 56.9231 74.6752 57.531 74.7565C57.9763 74.8166 58.4269 74.6646 58.4269 74.0798C58.4322 72.8323 59.063 71.818 59.7186 70.8567C60.754 69.3353 61.8567 67.8563 63.0017 66.4162C64.8305 64.1191 66.7036 61.8573 68.589 59.6061C69.1529 58.9329 69.7476 58.2861 70.3424 57.6392C70.6702 57.2827 70.9981 56.9261 71.3208 56.5651C71.9306 55.8816 72.5393 55.1974 73.148 54.5132C74.1021 53.4408 75.0561 52.3684 76.014 51.2994C76.0636 51.2439 76.1443 51.2157 76.2445 51.1805C76.2976 51.1619 76.3562 51.1414 76.4186 51.1138C76.3729 51.2389 76.3286 51.3598 76.2855 51.4774C76.1172 51.9367 75.9673 52.346 75.8196 52.7554C75.7333 52.995 75.6444 53.2335 75.5556 53.4719C75.3373 54.0582 75.1193 54.6437 74.9396 55.2416C74.6657 56.1605 74.4166 57.0917 74.2487 58.0353C74.1958 58.3321 74.138 58.6298 74.08 58.928C73.8667 60.0253 73.652 61.13 73.6797 62.2248C73.7381 64.5255 75.0032 66.1812 77.0565 67.2167C77.4579 67.4194 77.8585 67.6236 78.2592 67.8278C79.4231 68.4211 80.5869 69.0143 81.7674 69.5703C82.0786 69.717 82.3892 69.8667 82.7001 70.0165C83.958 70.6226 85.2192 71.2304 86.5383 71.6483C88.3498 72.223 90.1976 72.6873 92.0234 73.1461Z" fill="white"/>
<path d="M58.3241 136.617C58.6425 136.554 58.9767 136.565 59.2916 136.494C60.8976 136.137 62.2961 135.46 62.866 133.778C63.0191 133.326 63.0701 132.691 62.866 132.292C62.1607 130.906 60.8765 130.26 59.4024 129.938C58.2555 129.688 57.2159 129.748 56.4349 130.795C55.6837 131.803 55.4498 132.944 55.4621 134.114C55.3882 135.908 56.616 136.955 58.3223 136.616L58.3241 136.617Z" fill="white"/>
<path d="M94.5612 152.347C93.6975 152.19 93.5533 152.023 93.9579 151.27C94.6457 149.977 95.381 148.699 96.2095 147.495C97.3406 145.849 98.6071 144.296 99.7593 142.663C100.076 142.211 100.317 141.631 100.382 141.084C100.748 138.028 97.4004 135.75 95.191 136.241C93.453 136.628 91.7608 137.236 90.0615 137.791C89.4828 137.981 88.9832 138.079 88.4766 137.634C88.1019 137.303 87.6903 137.015 87.2822 136.721C86.0649 135.843 84.5063 135.965 83.4034 136.925C82.2969 137.887 82.1703 140.088 82.8282 141.625C82.9759 141.97 83.1906 142.438 83.0692 142.718C82.7402 143.492 82.3128 144.243 81.8079 144.917C80.624 146.494 79.4384 148.078 78.1332 149.553C76.5711 151.323 74.937 153.028 72.4232 153.48C71.3924 153.668 70.8066 153.395 70.9069 152.349C71.0212 151.163 71.1831 149.935 71.6088 148.836C72.8524 145.625 74.2122 142.461 75.5773 139.298C76.2598 137.718 77.0654 136.193 77.7849 134.629C78.0224 134.109 78.3742 133.855 78.9301 133.813C80.0963 133.724 81.2608 133.632 82.4253 133.518C84.4747 133.321 86.5222 133.12 88.5698 132.899C91.182 132.617 93.7907 132.309 96.403 132.019C99.2087 131.706 102.021 131.446 104.817 131.067C106.333 130.865 107.9 130.89 109.334 130.209C110.252 129.773 111.218 129.43 112.119 128.96C112.391 128.817 112.687 128.365 112.653 128.089C112.62 127.804 112.24 127.503 111.943 127.326C111.709 127.187 111.36 127.164 111.077 127.196C109.883 127.335 108.694 127.525 107.501 127.678C106.586 127.795 105.668 127.957 104.75 127.975C100.183 128.058 95.6149 128.096 91.0466 128.154C87.5073 128.198 83.9698 128.251 80.4288 128.292C80.1772 128.295 79.9257 128.239 79.5528 128.197C79.8096 127.857 80.0611 127.667 80.1157 127.433C80.3707 126.284 80.61 125.132 80.7824 123.971C80.8721 123.378 80.5467 123.046 79.9204 122.867C78.0681 122.337 76.2017 122.337 74.3336 122.626C73.922 122.687 73.403 123.064 73.2218 123.438C72.7328 124.446 72.4232 125.542 71.994 126.582C71.3643 128.109 71.2658 128.13 69.6562 127.943C66.4001 127.565 63.1406 127.201 59.8792 126.846C59.4852 126.803 59.0666 126.786 58.6831 126.863C57.8458 127.03 57.6241 127.695 58.1378 128.374C58.7781 129.217 59.8001 129.35 60.6937 129.514C63.4678 130.026 66.2682 130.394 69.0616 130.789C70.0151 130.925 70.1663 131.03 69.906 131.996C69.577 133.213 69.1637 134.413 68.7644 135.611C68.1733 137.389 67.5752 139.166 66.9543 140.932C66.1539 143.205 65.1442 145.393 63.5874 147.242C62.1872 148.903 60.6427 150.44 59.1264 151.997C58.6303 152.507 58.0656 152.985 57.45 153.341C56.6672 153.793 56.3681 153.58 56.5282 152.69C56.6918 151.786 56.9891 150.906 57.2565 150.021C57.7103 148.519 58.1905 147.026 58.6602 145.527C59.1369 144.005 59.6611 142.496 60.0815 140.959C60.312 140.114 59.9443 139.441 59.2548 138.857C58.0269 137.82 56.5775 137.296 55.0734 136.925C54.7621 136.849 54.0884 137.226 53.9811 137.534C53.3707 139.293 52.8939 141.099 52.3434 142.88C51.8297 144.542 51.2826 146.194 50.7373 147.845C50.0847 149.831 49.6572 151.768 50.7461 153.796C52.2765 156.65 55.5941 157.603 58.4245 156.421C60.1079 155.719 61.3481 154.44 62.4915 153.059C62.7501 152.746 63.0456 152.461 63.4062 152.08C64.1081 153.587 65.065 154.641 66.372 155.415C67.9411 156.34 69.6069 157.028 71.417 156.922C73.3045 156.813 75.1023 156.331 76.7734 155.251C79.1183 153.738 81.0761 151.833 82.8493 149.743C84.0208 148.363 84.9356 146.758 85.9277 145.231C86.2091 144.799 86.5099 144.565 87.0271 144.66C88.5276 144.934 89.8803 144.496 91.182 143.803C91.3861 143.694 91.613 143.631 91.8294 143.546C91.8364 143.873 91.7432 144.092 91.6113 144.282C91.182 144.899 90.7194 145.492 90.306 146.116C89.0623 147.99 88.0562 149.977 87.7835 152.238C87.5918 153.835 88.2514 156.036 90.3588 156.152C91.7133 156.227 93.0783 156.189 94.4346 156.11C94.9465 156.078 95.1382 156.173 95.2737 156.671C95.5885 157.837 95.2525 158.919 94.9148 159.985C93.9702 162.958 92.7494 165.804 89.9278 167.493C88.4221 168.393 86.8283 169.234 85.166 169.757C83.8397 170.172 82.3497 170.163 80.9319 170.163C78.485 170.161 76.0364 169.975 73.5895 169.946C70.0995 169.906 66.7273 169.29 63.4836 168.026C63.0368 167.851 62.5671 167.382 62.407 166.938C62.2505 166.515 63.5575 165.575 64.0658 165.614C65.9357 165.756 67.8021 165.948 69.6738 166.008C72.1858 166.087 74.6924 165.945 77.0901 165.109C78.1913 164.726 79.3769 164.289 79.4543 162.819C79.5053 161.902 79.2572 161.065 78.7401 160.268C77.8799 158.943 76.937 157.728 75.4014 157.17C75.0742 157.052 74.6379 157.237 74.2509 157.285C74.3828 157.6 74.4409 157.983 74.6573 158.217C75.5368 159.174 75.2641 159.656 74.2017 159.962C71.6176 160.71 68.9737 160.841 66.3157 160.632C64.0518 160.454 61.7914 160.224 59.538 159.948C58.0252 159.761 56.5124 159.52 55.0242 159.19C52.9942 158.738 50.9678 158.27 49.1084 157.255C47.9826 156.641 46.8251 156.094 46.1074 154.986C45.534 154.099 45.1558 153.119 45.4495 152.029C45.7609 150.862 46.0335 149.68 46.4416 148.547C47.0133 146.957 47.6097 145.365 48.345 143.847C49.5359 141.398 50.8692 139.018 52.1006 136.587C52.5281 135.746 52.514 134.849 51.8455 134.125C51.2316 133.456 50.6142 132.691 49.8314 132.295C48.5367 131.644 47.14 131.069 45.7239 130.814C44.5242 130.598 43.5497 131.599 42.6438 132.293C41.3192 133.31 40.0439 134.425 38.9057 135.646C36.1018 138.656 33.3611 141.724 30.6522 144.82C29.12 146.57 27.6916 148.41 26.2351 150.222C25.6634 150.931 25.1357 151.675 24.5833 152.403C23.9993 153.168 23.4135 153.932 22.8295 154.695C22.7715 154.662 22.7117 154.628 22.6536 154.595C22.782 154.314 22.8876 154.022 23.0406 153.754C24.2984 151.564 25.542 149.362 26.842 147.195C27.7937 145.606 28.8069 144.055 29.8131 142.503C32.0436 139.064 34.392 135.699 36.4905 132.183C37.8521 129.905 39.0852 127.495 39.9559 124.997C41.1152 121.679 40.496 120.117 37.6762 118.136C35.6004 116.678 33.2855 115.602 30.8263 114.85C28.7963 114.229 26.7664 113.804 24.6343 113.839C22.2156 113.879 19.8848 114.282 17.5681 115.003C14.8363 115.857 12.2997 117.074 9.97243 118.689C8.4561 119.739 7.01718 120.928 5.69259 122.209C4.49466 123.366 3.33191 124.629 2.45589 126.036C1.42859 127.688 0.422392 129.394 0.228893 131.46C0.10048 132.832 0.133903 134.149 0.951874 135.233C3.08388 138.061 6.04441 139.238 9.5309 139.207C9.72264 139.205 9.96715 139.161 10.0938 139.038C10.2891 138.848 10.5318 138.566 10.516 138.339C10.4984 138.107 10.2345 137.813 10.0041 137.699C9.67515 137.537 9.28287 137.479 8.9117 137.439C7.8545 137.328 7.12272 136.202 7.3514 135.243C7.60999 134.155 7.83691 133.001 8.3875 132.054C9.28991 130.499 10.4386 129.087 11.494 127.621C13.1564 125.312 15.3921 123.604 17.6666 121.978C19.0387 120.997 20.5621 120.203 22.0731 119.433C24.9123 117.983 27.9344 117.269 31.1359 117.515C32.4763 117.617 33.5969 118.398 33.1676 119.936C33.0076 120.515 32.902 121.125 32.6346 121.649C31.4895 123.889 30.3742 126.147 29.0971 128.309C26.7013 132.36 24.1981 136.345 21.7512 140.366C19.6386 143.836 17.4679 147.272 15.4643 150.804C14.0728 153.263 12.8415 155.825 11.6946 158.41C11.0754 159.805 11.0437 161.271 11.9707 162.713C13.0262 164.353 14.6481 165.158 16.2471 166.011C16.8645 166.34 17.6209 166.449 18.3316 166.544C18.8505 166.615 19.3729 166.439 19.3747 165.756C19.38 164.3 20.117 163.119 20.8805 161.999C22.0872 160.224 23.3731 158.5 24.7082 156.822C26.8402 154.145 29.025 151.508 31.2239 148.883C32.2441 147.666 33.3506 146.523 34.4095 145.337C36.2337 143.291 38.0508 141.238 39.8803 139.198C39.97 139.099 40.1406 139.075 40.3517 138.981C40.0914 139.697 39.8697 140.295 39.6534 140.895C39.3051 141.859 38.9198 142.813 38.6261 143.792C38.3077 144.864 38.0157 145.949 37.8204 147.05C37.5319 148.67 37.1168 150.312 37.1572 151.935C37.2241 154.616 38.6999 156.546 41.094 157.754C42.9217 158.676 44.7353 159.626 46.5859 160.497C48.4171 161.359 50.2307 162.312 52.1481 162.919C55.1368 163.865 58.2064 164.557 61.1722 165.336C60.8643 165.612 60.3982 165.915 60.0815 166.33C57.9706 169.099 59.0138 171.547 61.7245 172.772C63.3622 173.512 65.0685 174.072 66.8593 174.351C68.1152 174.546 69.3536 174.904 70.6131 175.013C72.3599 175.164 74.126 175.241 75.8781 175.187C78.58 175.102 81.2837 174.921 83.9804 174.698C85.2575 174.592 86.5521 174.399 87.7782 174.042C89.4018 173.57 90.9727 172.912 92.5576 172.309C93.1997 172.066 93.8664 171.825 94.4346 171.45C95.0731 171.032 95.6044 170.45 96.1954 169.954C97.666 168.72 99.0821 167.528 99.6573 165.505C100.199 163.609 100.808 161.754 100.954 159.768C101.089 157.913 100.408 156.356 99.3283 154.922C98.1339 153.335 96.4311 152.681 94.5577 152.343L94.5612 152.347Z" fill="white"/>
<path d="M121.95 140.955C121.676 140.988 121.298 141.287 121.206 141.546C120.589 143.312 120.065 145.111 119.456 146.881C118.905 148.482 118.327 150.077 117.674 151.639C117.417 152.251 116.923 152.763 116.536 153.321C116.443 153.291 116.351 153.261 116.258 153.231C116.327 152.455 116.337 151.669 116.473 150.906C116.775 149.215 117.127 147.532 117.486 145.852C117.653 145.069 117.429 144.427 116.794 144.005C115.691 143.27 114.559 142.571 113.18 142.455C112.245 142.378 112.216 142.466 112.101 143.377C111.918 144.84 111.69 146.304 111.354 147.738C111.095 148.844 110.682 149.919 110.267 150.98C109.832 152.086 109.236 153.105 108.178 153.75C107.783 153.993 107 153.806 106.944 153.439C106.799 152.485 106.513 151.488 106.657 150.568C106.97 148.578 107.38 146.578 108.02 144.673C108.437 143.435 109.229 142.281 110.033 141.227C111.037 139.91 113.072 139.428 113.999 141.688C114.151 142.057 114.735 142.337 115.176 142.481C115.966 142.74 116.465 142.36 116.327 141.551C116.203 140.835 115.832 140.158 115.553 139.472C115.051 138.242 114.089 137.343 112.965 136.838C110.259 135.621 107.638 136.277 105.318 137.869C103.501 139.116 102.254 140.944 101.429 143.002C100.233 145.991 99.698 148.994 101.211 152.077C102.177 154.046 103.432 155.72 105.51 156.549C107.178 157.214 109.062 157.272 110.446 155.463C110.689 155.145 110.991 154.872 111.234 154.556C111.522 154.181 111.714 154.318 112.024 154.568C112.923 155.293 113.815 156.051 114.807 156.626C115.635 157.106 116.638 157.138 117.458 156.547C118.898 155.507 119.743 153.965 120.52 152.431C121.125 151.238 121.539 149.945 121.984 148.677C122.635 146.819 123.289 144.96 123.838 143.071C124.223 141.744 123.336 140.787 121.956 140.956L121.95 140.955Z" fill="white"/>
<path d="M128.045 134.966C128.026 134.792 128.019 134.616 128.021 134.442C128.061 131.705 128.077 128.966 128.153 126.229C128.223 123.703 126.779 122.041 125.014 120.551C124.817 120.384 124.518 120.313 124.254 120.252C123.579 120.093 123.285 120.398 123.327 121.096C123.408 122.419 123.537 123.747 123.493 125.068C123.426 127.066 123.231 129.061 123.09 131.058C123.104 131.058 123.118 131.059 123.134 131.061C123.173 131.51 123.218 131.96 123.25 132.409C123.366 134.085 125.094 135.953 126.763 136.201C127.896 136.37 128.174 136.103 128.047 134.965L128.045 134.966Z" fill="white"/>
<path d="M151.312 133.819C151.08 133.78 150.825 133.902 150.577 133.918C150.007 133.955 149.435 133.974 148.864 133.99C148.528 133.999 148.158 133.898 147.861 134.004C147.089 134.276 146.322 134.584 145.6 134.971C143.755 135.958 141.929 136.98 140.112 138.018C139.424 138.412 138.795 138.908 138.109 139.307C137.968 139.39 137.519 139.255 137.517 139.216C137.509 138.486 137.364 137.686 137.614 137.044C138.082 135.839 139.011 134.911 140 134.072C140.33 133.791 140.555 133.81 140.89 134.115C141.537 134.702 142.784 134.44 143.029 133.608C143.293 132.714 143.43 131.757 143.447 130.825C143.463 129.967 142.972 129.467 142.098 129.388C139.848 129.186 137.662 129.43 135.626 130.537C134.144 131.344 132.933 132.433 132.451 134.067C132.175 134.999 132.151 136.034 132.168 137.021C132.202 138.98 133.12 140.479 134.844 141.587C133.834 142.361 132.865 143.155 131.846 143.878C129.104 145.823 127.303 148.358 126.847 151.741C126.766 152.337 126.671 153.039 126.901 153.549C127.368 154.582 127.996 155.556 128.668 156.473C129.004 156.932 129.531 157.354 130.063 157.547C131.971 158.24 133.95 158.467 135.987 158.214C138.532 157.897 140.422 156.604 141.732 154.446C142.395 153.354 142.71 152.147 142.994 150.882C143.407 149.037 142.877 147.505 141.982 146.039C141.139 144.659 140.137 143.373 139.127 141.936C139.586 141.547 140.128 141.049 140.712 140.606C141.366 140.111 142.054 139.663 142.733 139.202C144.869 137.754 147.083 136.456 149.511 135.543C150.186 135.29 150.835 134.957 151.481 134.628C151.632 134.551 151.713 134.336 151.828 134.183C151.657 134.057 151.5 133.854 151.314 133.824L151.312 133.819ZM135.028 153.473C134.613 153.866 134.247 154.363 133.755 154.604C132.715 155.111 131.396 155.048 131.199 153.927C131.055 153.109 131.03 152.196 131.241 151.403C131.869 149.023 133.375 147.146 135.018 145.378C135.342 145.03 135.679 144.695 135.998 144.344C136.393 143.906 136.796 143.944 136.99 144.462C137.345 145.408 137.6 146.391 137.783 146.988C137.609 149.785 136.77 151.832 135.028 153.477V153.473Z" fill="white"/>
<path d="M129.763 193.373C129.763 193.769 129.686 194.143 129.533 194.494C129.386 194.846 129.181 195.153 128.919 195.415C128.657 195.677 128.35 195.885 127.998 196.038C127.647 196.185 127.273 196.259 126.876 196.259H126.09C125.694 196.259 125.32 196.185 124.968 196.038C124.617 195.885 124.31 195.677 124.048 195.415C123.786 195.153 123.578 194.846 123.425 194.494C123.278 194.143 123.204 193.769 123.204 193.373V188.943C123.204 188.546 123.278 188.172 123.425 187.821C123.578 187.469 123.786 187.162 124.048 186.9C124.31 186.638 124.617 186.434 124.968 186.287C125.32 186.133 125.694 186.056 126.09 186.056H126.876C127.273 186.056 127.647 186.133 127.998 186.287C128.35 186.434 128.657 186.638 128.919 186.9C129.181 187.162 129.386 187.469 129.533 187.821C129.686 188.172 129.763 188.546 129.763 188.943V191.253H124.383V193.44C124.383 193.676 124.428 193.9 124.518 194.111C124.607 194.315 124.729 194.494 124.882 194.648C125.035 194.801 125.214 194.923 125.419 195.012C125.63 195.102 125.854 195.146 126.09 195.146H126.876C127.113 195.146 127.334 195.102 127.538 195.012C127.749 194.923 127.931 194.801 128.085 194.648C128.238 194.494 128.36 194.315 128.449 194.111C128.539 193.9 128.583 193.676 128.583 193.44V192.788L129.763 192.979V193.373ZM128.583 188.875C128.583 188.639 128.539 188.418 128.449 188.214C128.36 188.003 128.238 187.821 128.085 187.667C127.931 187.514 127.749 187.392 127.538 187.303C127.334 187.213 127.113 187.169 126.876 187.169H126.09C125.854 187.169 125.63 187.213 125.419 187.303C125.214 187.392 125.035 187.514 124.882 187.667C124.729 187.821 124.607 188.003 124.518 188.214C124.428 188.418 124.383 188.639 124.383 188.875V190.333H128.583V188.875Z" fill="white"/>
<path d="M120.452 187.37C120.216 187.37 119.992 187.415 119.781 187.504C119.576 187.594 119.397 187.715 119.244 187.869C119.091 188.022 118.969 188.204 118.88 188.415C118.79 188.62 118.745 188.84 118.745 189.077V196.067H117.566V186.248H117.959L118.602 187.245C118.87 186.881 119.206 186.593 119.608 186.382C120.018 186.165 120.462 186.056 120.941 186.056H121.632V187.37H120.452Z" fill="white"/>
<path d="M115.207 193.373C115.207 193.769 115.13 194.143 114.977 194.494C114.83 194.846 114.625 195.153 114.363 195.415C114.101 195.677 113.794 195.885 113.443 196.038C113.091 196.185 112.717 196.259 112.321 196.259H111.535C111.138 196.259 110.764 196.185 110.413 196.038C110.061 195.885 109.754 195.677 109.492 195.415C109.23 195.153 109.022 194.846 108.869 194.494C108.722 194.143 108.648 193.769 108.648 193.373V188.943C108.648 188.546 108.722 188.172 108.869 187.821C109.022 187.469 109.23 187.162 109.492 186.9C109.754 186.638 110.061 186.434 110.413 186.287C110.764 186.133 111.138 186.056 111.535 186.056H112.321C112.717 186.056 113.091 186.133 113.443 186.287C113.794 186.434 114.101 186.638 114.363 186.9C114.625 187.162 114.83 187.469 114.977 187.821C115.13 188.172 115.207 188.546 115.207 188.943V193.373ZM114.028 188.875C114.028 188.639 113.983 188.418 113.893 188.214C113.804 188.003 113.682 187.821 113.529 187.667C113.376 187.514 113.193 187.392 112.982 187.303C112.778 187.213 112.557 187.169 112.321 187.169H111.535C111.298 187.169 111.074 187.213 110.863 187.303C110.659 187.392 110.48 187.514 110.326 187.667C110.173 187.821 110.052 188.003 109.962 188.214C109.873 188.418 109.828 188.639 109.828 188.875V193.44C109.828 193.676 109.873 193.9 109.962 194.111C110.052 194.315 110.173 194.494 110.326 194.648C110.48 194.801 110.659 194.923 110.863 195.012C111.074 195.102 111.298 195.146 111.535 195.146H112.321C112.557 195.146 112.778 195.102 112.982 195.012C113.193 194.923 113.376 194.801 113.529 194.648C113.682 194.494 113.804 194.315 113.893 194.111C113.983 193.9 114.028 193.676 114.028 193.44V188.875Z" fill="white"/>
<path d="M105.11 196.067V188.875C105.11 188.639 105.065 188.418 104.976 188.214C104.886 188.003 104.765 187.821 104.611 187.667C104.458 187.514 104.276 187.392 104.065 187.303C103.86 187.213 103.64 187.169 103.403 187.169H102.818C102.582 187.169 102.358 187.213 102.147 187.303C101.942 187.392 101.76 187.514 101.6 187.667C101.447 187.821 101.326 188.003 101.236 188.214C101.147 188.418 101.102 188.639 101.102 188.875V196.067H99.932V188.875C99.932 188.639 99.8873 188.418 99.7978 188.214C99.7083 188.003 99.5836 187.821 99.4238 187.667C99.2704 187.514 99.0882 187.392 98.8773 187.303C98.6727 187.213 98.4522 187.169 98.2157 187.169H97.6308C97.3942 187.169 97.1705 187.213 96.9595 187.303C96.755 187.392 96.576 187.514 96.4226 187.667C96.2692 187.821 96.1477 188.003 96.0582 188.214C95.9687 188.418 95.924 188.639 95.924 188.875V196.067H94.7446V186.248H95.1377L95.7801 187.245C96.0486 186.881 96.3842 186.593 96.7869 186.382C97.1961 186.165 97.6403 186.056 98.1198 186.056H98.2157C98.7718 186.056 99.2736 186.194 99.7211 186.469C100.169 186.744 100.514 187.108 100.757 187.562C100.878 187.338 101.028 187.134 101.207 186.948C101.386 186.763 101.584 186.606 101.802 186.478C102.019 186.344 102.256 186.242 102.511 186.171C102.767 186.095 103.032 186.056 103.307 186.056H103.403C103.799 186.056 104.173 186.133 104.525 186.287C104.877 186.434 105.183 186.638 105.445 186.9C105.708 187.162 105.912 187.469 106.059 187.821C106.213 188.172 106.289 188.546 106.289 188.943V196.067H105.11Z" fill="white"/>
<path d="M87.3134 196.259C86.7573 196.259 86.2715 196.141 85.856 195.905C85.4468 195.668 85.1208 195.348 84.8779 194.946C84.5583 195.348 84.1652 195.668 83.6985 195.905C83.2319 196.141 82.7269 196.259 82.1835 196.259H81.5986C81.132 196.259 80.6909 196.173 80.2754 196.001C79.8662 195.822 79.5083 195.579 79.2014 195.272C78.8946 194.965 78.6517 194.607 78.4727 194.198C78.3001 193.789 78.2138 193.351 78.2138 192.884V192.136C78.2138 191.81 78.2554 191.5 78.3385 191.206C78.428 190.906 78.5526 190.628 78.7124 190.372C78.8722 190.116 79.0608 189.886 79.2781 189.682C79.4955 189.471 79.7384 189.295 80.0069 189.154C79.7384 189.014 79.4955 188.841 79.2781 188.636C79.0608 188.425 78.8722 188.192 78.7124 187.936C78.5526 187.681 78.428 187.406 78.3385 187.112C78.2554 186.811 78.2138 186.498 78.2138 186.172V185.501C78.2138 185.034 78.3001 184.596 78.4727 184.187C78.6517 183.778 78.8946 183.42 79.2014 183.113C79.5083 182.807 79.8662 182.567 80.2754 182.394C80.6909 182.215 81.132 182.126 81.5986 182.126H82.1835C82.6502 182.126 83.088 182.215 83.4972 182.394C83.9063 182.567 84.2642 182.807 84.5711 183.113C84.8779 183.42 85.1176 183.778 85.2902 184.187C85.4692 184.596 85.5587 185.034 85.5587 185.501V185.597L84.3218 185.798V185.501C84.3218 185.194 84.2642 184.91 84.1492 184.648C84.0341 184.379 83.8775 184.146 83.6793 183.948C83.4812 183.749 83.2478 183.593 82.9794 183.478C82.7173 183.363 82.4328 183.305 82.126 183.305H81.6561C81.3493 183.305 81.0616 183.363 80.7932 183.478C80.5311 183.593 80.2977 183.749 80.0932 183.948C79.895 184.146 79.7384 184.379 79.6233 184.648C79.5083 184.91 79.4507 185.194 79.4507 185.501V186.364C79.4507 186.671 79.5083 186.958 79.6233 187.227C79.7384 187.489 79.895 187.722 80.0932 187.927C80.2977 188.125 80.5311 188.282 80.7932 188.397C81.0616 188.512 81.3493 188.569 81.6561 188.569H84.3218V187.313L85.5587 187.112V188.55H87.4669V189.72H85.5587V193.028C85.5715 193.316 85.6162 193.584 85.693 193.833C85.7697 194.083 85.8815 194.303 86.0286 194.495C86.182 194.68 86.3705 194.827 86.5943 194.936C86.818 195.038 87.0769 195.09 87.371 195.09H87.6586L87.486 196.259H87.3134ZM82.126 195.09C82.42 195.09 82.6981 195.035 82.9602 194.927C83.2223 194.818 83.4492 194.668 83.641 194.476C83.8391 194.284 83.999 194.06 84.1204 193.805C84.2419 193.549 84.309 193.274 84.3218 192.98V189.749H81.6561C81.3493 189.749 81.0616 189.806 80.7932 189.921C80.5311 190.036 80.2977 190.193 80.0932 190.391C79.895 190.589 79.7384 190.823 79.6233 191.091C79.5083 191.353 79.4507 191.638 79.4507 191.945V192.884C79.4507 193.191 79.5083 193.479 79.6233 193.747C79.7384 194.009 79.895 194.243 80.0932 194.447C80.2977 194.645 80.5311 194.802 80.7932 194.917C81.0616 195.032 81.3493 195.09 81.6561 195.09H82.126Z" fill="white"/>
<path d="M67.3402 199.999H66.1992L67.9443 195.224L64.7609 186.249H65.9403L68.5004 193.689L68.5388 194.198L68.5771 193.689L71.1277 186.249H72.3071L67.3402 199.999Z" fill="white"/>
<path d="M62.997 187.37C62.7604 187.37 62.5367 187.415 62.3258 187.504C62.1212 187.594 61.9422 187.715 61.7888 187.869C61.6354 188.022 61.5139 188.204 61.4244 188.415C61.3349 188.62 61.2902 188.84 61.2902 189.077V196.067H60.1108V186.248H60.5039L61.1464 187.245C61.4148 186.881 61.7504 186.593 62.1532 186.382C62.5623 186.165 63.0066 186.056 63.486 186.056H64.1764V187.37H62.997Z" fill="white"/>
<path d="M56.1696 196.068V182.318H57.349V196.068H56.1696Z" fill="white"/>
<path d="M53.4183 193.373C53.4183 193.769 53.3415 194.143 53.1881 194.494C53.0411 194.846 52.8365 195.153 52.5745 195.415C52.3124 195.677 52.0055 195.885 51.6539 196.038C51.3024 196.185 50.9284 196.259 50.5321 196.259H49.7458C49.3495 196.259 48.9755 196.185 48.6239 196.038C48.2723 195.885 47.9655 195.677 47.7034 195.415C47.4413 195.153 47.2336 194.846 47.0802 194.494C46.9331 194.143 46.8596 193.769 46.8596 193.373V188.943C46.8596 188.546 46.9331 188.172 47.0802 187.821C47.2336 187.469 47.4413 187.162 47.7034 186.9C47.9655 186.638 48.2723 186.434 48.6239 186.287C48.9755 186.133 49.3495 186.056 49.7458 186.056H50.5321C50.9284 186.056 51.3024 186.133 51.6539 186.287C52.0055 186.434 52.3124 186.638 52.5745 186.9C52.8365 187.162 53.0411 187.469 53.1881 187.821C53.3415 188.172 53.4183 188.546 53.4183 188.943V191.253H48.039V193.44C48.039 193.676 48.0838 193.9 48.1733 194.111C48.2628 194.315 48.3842 194.494 48.5376 194.648C48.6911 194.801 48.87 194.923 49.0746 195.012C49.2855 195.102 49.5093 195.146 49.7458 195.146H50.5321C50.7686 195.146 50.9891 195.102 51.1937 195.012C51.4046 194.923 51.5868 194.801 51.7402 194.648C51.8937 194.494 52.0151 194.315 52.1046 194.111C52.1941 193.9 52.2389 193.676 52.2389 193.44V192.788L53.4183 192.979V193.373ZM52.2389 188.875C52.2389 188.639 52.1941 188.418 52.1046 188.214C52.0151 188.003 51.8937 187.821 51.7402 187.667C51.5868 187.514 51.4046 187.392 51.1937 187.303C50.9891 187.213 50.7686 187.169 50.5321 187.169H49.7458C49.5093 187.169 49.2855 187.213 49.0746 187.303C48.87 187.392 48.6911 187.514 48.5376 187.667C48.3842 187.821 48.2628 188.003 48.1733 188.214C48.0838 188.418 48.039 188.639 48.039 188.875V190.333H52.2389V188.875Z" fill="white"/>
<path d="M42.1991 196.067H41.5566L39.2554 188.665L39.217 188.157L39.1787 188.665L36.8774 196.067H36.2254L32.946 186.249H34.1446L36.4843 193.67L36.5226 194.178L36.561 193.67L38.8622 186.249H39.5718L41.8635 193.67L41.9018 194.178L41.9402 193.67L44.2798 186.249H45.4784L42.1991 196.067Z" fill="white"/>
<path d="M31.575 193.373C31.575 193.769 31.4983 194.143 31.3449 194.494C31.1978 194.846 30.9933 195.153 30.7312 195.415C30.4691 195.677 30.1623 195.885 29.8107 196.038C29.4591 196.185 29.0851 196.259 28.6888 196.259H27.9025C27.5062 196.259 27.1323 196.185 26.7807 196.038C26.4291 195.885 26.1222 195.677 25.8602 195.415C25.5981 195.153 25.3903 194.846 25.2369 194.494C25.0899 194.143 25.0164 193.769 25.0164 193.373V188.943C25.0164 188.546 25.0899 188.172 25.2369 187.821C25.3903 187.469 25.5981 187.162 25.8602 186.9C26.1222 186.638 26.4291 186.434 26.7807 186.287C27.1323 186.133 27.5062 186.056 27.9025 186.056H28.6888C29.0851 186.056 29.4591 186.133 29.8107 186.287C30.1623 186.434 30.4691 186.638 30.7312 186.9C30.9933 187.162 31.1978 187.469 31.3449 187.821C31.4983 188.172 31.575 188.546 31.575 188.943V191.253H26.1958V193.44C26.1958 193.676 26.2405 193.9 26.33 194.111C26.4195 194.315 26.541 194.494 26.6944 194.648C26.8478 194.801 27.0268 194.923 27.2313 195.012C27.4423 195.102 27.666 195.146 27.9025 195.146H28.6888C28.9253 195.146 29.1459 195.102 29.3504 195.012C29.5614 194.923 29.7436 194.801 29.897 194.648C30.0504 194.494 30.1719 194.315 30.2613 194.111C30.3508 193.9 30.3956 193.676 30.3956 193.44V192.788L31.575 192.979V193.373ZM30.3956 188.875C30.3956 188.639 30.3508 188.418 30.2613 188.214C30.1719 188.003 30.0504 187.821 29.897 187.667C29.7436 187.514 29.5614 187.392 29.3504 187.303C29.1459 187.213 28.9253 187.169 28.6888 187.169H27.9025C27.666 187.169 27.4423 187.213 27.2313 187.303C27.0268 187.392 26.8478 187.514 26.6944 187.667C26.541 187.821 26.4195 188.003 26.33 188.214C26.2405 188.418 26.1958 188.639 26.1958 188.875V190.333H30.3956V188.875Z" fill="white"/>
<path d="M20.9795 183.89V182.318H22.3507V183.89H20.9795ZM22.2548 197.113C22.2548 197.509 22.1781 197.88 22.0246 198.225C21.8776 198.577 21.6731 198.884 21.411 199.146C21.1489 199.408 20.842 199.616 20.4905 199.769C20.1389 199.923 19.7649 199.999 19.3686 199.999V198.877C19.6051 198.877 19.8257 198.833 20.0302 198.743C20.2412 198.654 20.4233 198.532 20.5768 198.379C20.7302 198.225 20.8516 198.043 20.9411 197.832C21.0306 197.628 21.0754 197.407 21.0754 197.171V186.249H22.2548V197.113Z" fill="white"/>
</svg>
