<svg width="380" height="380" viewBox="0 0 380 380" fill="none" xmlns="http://www.w3.org/2000/svg">
<path fill-rule="evenodd" clip-rule="evenodd" d="M380 190C380 294.934 294.934 380 190 380C85.0658 380 0 294.934 0 190C0 85.066 85.0658 0 190 0C294.934 0 380 85.066 380 190ZM248.507 266.442C251.263 267.134 254.005 267.823 256.719 268.536L256.706 268.53C261.385 269.122 265.736 269.405 265.736 269.405C267.326 269.526 268.916 269.658 270.507 269.791C274.755 270.145 279.004 270.498 283.256 270.634C291.102 270.885 298.935 270.435 306.427 267.828C309.87 266.631 313.571 265.266 313.815 260.671C313.976 257.807 313.204 255.194 311.588 252.703C308.898 248.564 305.95 244.767 301.155 243.029C300.455 242.772 299.591 242.966 298.726 243.16C298.334 243.249 297.941 243.337 297.564 243.383C297.694 243.695 297.801 244.028 297.909 244.36C298.14 245.076 298.37 245.791 298.832 246.292C301.58 249.279 300.73 250.785 297.409 251.744C289.332 254.087 281.074 254.492 272.771 253.842C265.698 253.288 258.637 252.568 251.595 251.705C246.865 251.126 242.147 250.366 237.494 249.337C231.154 247.927 224.827 246.466 219.015 243.293C218.667 243.102 218.319 242.914 217.971 242.726C214.799 241.014 211.662 239.32 209.644 236.2C207.848 233.426 206.67 230.369 207.59 226.957C207.81 226.135 208.023 225.309 208.237 224.484C208.968 221.654 209.7 218.82 210.686 216.08C212.469 211.111 214.329 206.142 216.633 201.399C218.802 196.938 221.122 192.551 223.442 188.163C225.102 185.024 226.762 181.885 228.367 178.717C229.699 176.091 229.661 173.291 227.569 171.026C227.284 170.717 227 170.401 226.714 170.083C225.064 168.252 223.358 166.358 221.274 165.31C217.226 163.277 212.868 161.481 208.44 160.683C205.256 160.109 202.582 162.274 200.119 164.269C199.679 164.625 199.246 164.975 198.818 165.304C194.679 168.477 190.695 171.966 187.136 175.776C178.376 185.179 169.816 194.77 161.352 204.437C157.719 208.582 154.279 212.894 150.84 217.205C149.746 218.576 148.652 219.947 147.553 221.313C146.355 222.8 145.215 224.337 144.076 225.874C143.518 226.625 142.961 227.377 142.397 228.122C141.376 229.465 140.351 230.803 139.326 232.141C138.523 233.189 137.72 234.237 136.92 235.286C136.81 235.223 136.697 235.158 136.585 235.093C136.514 235.052 136.443 235.011 136.373 234.971C136.495 234.701 136.611 234.428 136.727 234.156C136.99 233.538 137.252 232.921 137.583 232.345C138.497 230.754 139.409 229.161 140.32 227.568C143.33 222.309 146.341 217.048 149.458 211.851C152.156 207.338 155.02 202.926 157.884 198.514C158.169 198.075 158.454 197.635 158.739 197.196C160.97 193.758 163.238 190.344 165.506 186.929C170.325 179.674 175.144 172.421 179.599 164.95C183.853 157.838 187.709 150.301 190.431 142.5C194.055 132.138 192.118 127.259 183.313 121.067C176.825 116.517 169.597 113.151 161.912 110.801C155.566 108.864 149.226 107.532 142.564 107.641C135.008 107.77 127.722 109.025 120.488 111.278C111.953 113.942 104.03 117.746 96.7572 122.792C92.02 126.075 87.521 129.788 83.3825 133.792C79.6366 137.409 76.0064 141.355 73.271 145.751C70.0657 150.906 66.9184 156.242 66.3134 162.691C65.9143 166.984 66.0173 171.097 68.5725 174.482C75.2341 183.319 84.4831 186.994 95.3798 186.898C95.9784 186.891 96.7443 186.75 97.1369 186.37C97.7483 185.778 98.5078 184.896 98.4563 184.188C98.3984 183.461 97.5745 182.54 96.8537 182.186C95.8303 181.678 94.601 181.498 93.4425 181.369C90.1406 181.028 87.8557 177.501 88.5701 174.508C88.6635 174.117 88.7555 173.723 88.8479 173.327C89.5575 170.288 90.287 167.164 91.8076 164.545C93.8549 161.016 96.3094 157.721 98.7622 154.429C99.6869 153.187 100.611 151.947 101.514 150.694C106.708 143.479 113.691 138.143 120.797 133.064C125.09 129.994 129.846 127.516 134.564 125.109C143.433 120.578 152.875 118.351 162.877 119.117C167.061 119.439 170.562 121.878 169.224 126.68C169.094 127.145 168.976 127.618 168.857 128.092C168.518 129.451 168.177 130.816 167.557 132.028C167.021 133.077 166.487 134.128 165.954 135.178C162.927 141.135 159.898 147.097 156.505 152.837C151.602 161.13 146.555 169.332 141.507 177.536C138.849 181.855 136.191 186.175 133.554 190.509C131.874 193.266 130.182 196.016 128.491 198.766C123.533 206.829 118.575 214.891 113.91 223.121C109.559 230.806 105.71 238.807 102.131 246.891C100.201 251.255 100.098 255.831 102.994 260.336C106.131 265.204 110.861 267.719 115.61 270.244C115.858 270.376 116.107 270.508 116.356 270.641C118.287 271.67 120.655 272.012 122.869 272.308C124.491 272.527 126.132 271.973 126.132 269.843C126.152 265.299 128.45 261.604 130.837 258.103C134.609 252.561 138.625 247.174 142.796 241.928C149.458 233.561 156.28 225.323 163.148 217.123C165.202 214.67 167.368 212.314 169.535 209.958C170.729 208.66 171.923 207.361 173.098 206.046C175.32 203.555 177.539 201.062 179.757 198.569C183.231 194.664 186.705 190.759 190.193 186.866C190.374 186.664 190.668 186.561 191.033 186.433C191.226 186.365 191.44 186.29 191.667 186.19C191.498 186.653 191.334 187.1 191.174 187.536C190.565 189.2 190.021 190.685 189.485 192.169C189.171 193.042 188.847 193.911 188.524 194.779C187.728 196.915 186.934 199.047 186.28 201.225C185.282 204.572 184.375 207.964 183.763 211.401C183.571 212.482 183.36 213.566 183.149 214.653C182.372 218.65 181.59 222.673 181.691 226.661C181.903 235.042 186.511 241.072 193.99 244.844C195.451 245.582 196.909 246.325 198.367 247.068C202.608 249.23 206.849 251.391 211.15 253.417C212.284 253.951 213.415 254.497 214.547 255.042C219.129 257.25 223.723 259.464 228.528 260.986C235.126 263.079 241.856 264.771 248.507 266.442Z" fill="#FCFCFC"/>
</svg>
