<svg width="320" height="320" viewBox="0 0 320 320" fill="none" xmlns="http://www.w3.org/2000/svg">
<path d="M160 320C248.366 320 320 248.366 320 160C320 71.6345 248.366 0 160 0C71.6344 0 0 71.6345 0 160C0 248.366 71.6344 320 160 320Z" fill="#292D32"/>
<path d="M216.186 226.135C208.384 224.086 200.307 222.27 192.444 219.778C187.399 218.181 182.628 215.673 177.811 213.405C172.944 211.111 168.168 208.614 163.362 206.188C157.065 203.009 153.184 197.933 153.006 190.878C152.899 186.606 153.993 182.288 154.751 178.026C155.264 175.132 156.032 172.273 156.872 169.455C157.645 166.877 158.657 164.369 159.572 161.831C160.142 160.255 160.722 158.678 161.408 156.796C160.854 157.04 160.401 157.106 160.167 157.366C155.356 162.737 150.575 168.138 145.774 173.519C142.986 176.637 140.077 179.643 137.392 182.847C131.609 189.754 125.861 196.692 120.251 203.736C116.737 208.151 113.355 212.688 110.181 217.357C108.172 220.307 106.234 223.414 106.219 227.244C106.219 229.04 104.835 229.503 103.472 229.319C101.606 229.07 99.6118 228.78 97.9893 227.916C93.783 225.673 89.5157 223.552 86.7387 219.239C84.2973 215.444 84.3838 211.589 86.0114 207.917C89.0275 201.112 92.2673 194.373 95.9294 187.903C101.199 178.605 106.91 169.567 112.47 160.438C118.909 149.859 125.495 139.376 131.797 128.715C135.159 123.029 138.094 117.083 141.105 111.194C141.812 109.815 142.086 108.208 142.508 106.687C143.637 102.644 140.687 100.589 137.163 100.32C128.74 99.6736 120.79 101.55 113.319 105.365C109.347 107.394 105.339 109.48 101.728 112.063C95.7411 116.341 89.8616 120.832 85.4875 126.91C82.7104 130.765 79.6892 134.483 77.314 138.572C75.8645 141.065 75.2694 144.101 74.5879 146.965C73.9877 149.487 75.9103 152.453 78.6925 152.742C79.669 152.849 80.7014 153.002 81.5661 153.429C82.1713 153.729 82.8681 154.502 82.9139 155.113C82.9596 155.708 82.3188 156.45 81.8051 156.949C81.4745 157.269 80.8286 157.386 80.3251 157.391C71.1497 157.473 63.3627 154.375 57.7527 146.934C55.6013 144.081 55.5148 140.617 55.8505 137.006C56.3591 131.574 59.009 127.083 61.7097 122.739C64.0138 119.037 67.0705 115.715 70.224 112.669C73.708 109.297 77.4972 106.169 81.4848 103.407C87.6085 99.1599 94.2814 95.9556 101.468 93.7126C107.561 91.8155 113.695 90.7575 120.058 90.6507C125.668 90.5592 131.008 91.6781 136.349 93.3108C142.819 95.2893 148.907 98.1223 154.369 101.957C161.785 107.171 163.417 111.28 160.366 120.008C158.072 126.579 154.827 132.922 151.246 138.913C145.728 148.165 139.548 157.02 133.679 166.068C131.029 170.152 128.364 174.231 125.861 178.412C122.443 184.114 119.173 189.907 115.862 195.67C115.46 196.371 115.18 197.139 114.845 197.882C114.997 197.968 115.155 198.06 115.308 198.146C116.844 196.137 118.385 194.128 119.921 192.114C121.37 190.202 122.759 188.244 124.264 186.377C128.099 181.611 131.853 176.769 135.886 172.166C143.012 164.023 150.224 155.952 157.599 148.033C160.595 144.823 163.952 141.889 167.436 139.213C169.816 137.387 172.379 134.753 175.538 135.322C179.266 135.994 182.938 137.504 186.346 139.218C188.406 140.256 190.028 142.27 191.646 144.03C193.405 145.937 193.441 148.297 192.317 150.51C189.077 156.903 185.568 163.164 182.435 169.608C180.497 173.601 178.93 177.787 177.425 181.972C176.351 184.953 175.634 188.066 174.816 191.133C174.042 194.006 175.034 196.58 176.545 198.914C178.432 201.829 181.478 203.268 184.438 204.886C189.331 207.556 194.662 208.787 200.002 209.977C203.918 210.847 207.896 211.482 211.878 211.971C217.809 212.698 223.754 213.303 229.71 213.771C236.704 214.32 243.657 213.975 250.457 212.006C253.254 211.198 253.971 209.931 251.657 207.413C251.087 206.798 250.935 205.791 250.589 204.962C251.606 204.84 252.756 204.352 253.615 204.662C257.654 206.127 260.136 209.326 262.399 212.81C263.757 214.905 264.408 217.108 264.276 219.518C264.072 223.389 260.954 224.538 258.055 225.546C251.749 227.743 245.152 228.119 238.545 227.911C233.621 227.753 228.708 227.249 223.79 226.873C223.79 226.873 220.128 226.634 216.186 226.135Z" fill="white"/>
</svg>
